<?xml version="1.0" encoding="UTF-8"?>
<svg width="62px" height="52px" viewBox="0 0 62 52" version="1.1" xmlns="http://www.w3.org/2000/svg" xmlns:xlink="http://www.w3.org/1999/xlink">
    <!-- Generator: Sketch 43.2 (39069) - http://www.bohemiancoding.com/sketch -->
    <title>icon-organize-red</title>
    <desc>Created with Sketch.</desc>
    <defs></defs>
    <g id="Page-1" stroke="none" stroke-width="1" fill="none" fill-rule="evenodd">
        <g id="icon-organize-red" fill="#D84E4E">
            <path d="M61.4785284,46.840128 C58.1542747,43.5866793 48.8555061,40.0141596 48.160003,40.0141596 C48.0318368,40.0141596 47.9027744,40.0473215 47.7880523,40.1064751 C46.1398175,40.9964681 43.6571583,41.3110578 41.4720598,40.9677876 C40.8375028,40.8691982 40.4234275,42.4860636 41.5294208,42.5568687 C43.8668848,42.7083378 46.4024237,42.5335657 48.2415633,41.6319213 C49.8387108,42.1553411 57.5905228,45.217885 60.3886679,47.9443287 L60.3886679,50.6349218 C60.3886679,50.6349218 53.2642427,50.645677 45.5070531,50.645677 C44.5623879,50.645677 44.4763462,52.2007 45.5070531,52.2007 L60.4128671,52.2007 C61.2571505,52.2007 61.9436909,51.5096783 61.9436909,50.659121 L61.9436909,47.9443287 C61.9436909,47.5266684 61.7716077,47.1206595 61.4785284,46.840128 L61.4785284,46.840128 Z M35.9071389,27.7012456 C36.2584755,27.5336437 36.4341438,27.1285311 36.3158366,26.7547878 C36.0514378,25.9275335 35.9169978,25.0689099 35.9169978,24.2013236 C35.9169978,19.8669771 39.1964382,16.3410633 43.2287428,16.3410633 C47.2601511,16.3410633 50.5404878,19.8669771 50.5404878,24.2013236 C50.5404878,25.0733912 50.4060477,25.9320149 50.1443378,26.7538916 C50.024238,27.1276348 50.1981138,27.5336437 50.551243,27.7012456 C51.0101316,27.920831 50.92409,28.4200516 50.9025796,28.518641 C50.8756916,28.6405333 50.7520067,29.0420608 50.2940144,29.0420608 C49.8871092,29.0420608 49.5483203,29.358443 49.5178473,29.7671407 C49.2722702,33.1155937 46.6282829,36.8494414 43.2287428,36.8494414 C39.8283063,36.8494414 37.1852154,33.1155937 36.938742,29.7671407 C36.9091652,29.358443 36.5461771,29.0420608 36.139272,29.0420608 C35.7045826,29.0420608 35.581794,28.6405333 35.554906,28.518641 C35.5333956,28.4200516 35.447354,27.920831 35.9071389,27.7012456 L35.9071389,27.7012456 Z M34.0384225,28.8601187 C34.2158833,29.6568999 34.7473696,30.2538136 35.4545241,30.4931169 C36.0120021,34.4268321 39.1274257,38.4152196 43.2287428,38.4152196 C47.3300599,38.4152196 50.4436909,34.4295209 51.0029614,30.4975982 C51.7047384,30.2600875 52.2416022,29.6613812 52.4190631,28.8610149 C52.6081754,28.0203166 52.3572207,27.2082988 51.7854024,26.6723313 C51.9897513,25.8692762 52.0937182,25.0402293 52.0937182,24.2013236 C52.0937182,19.0038721 48.1178785,14.7752851 43.2287428,14.7752851 C38.3405034,14.7752851 34.3628711,19.0038721 34.3628711,24.2013236 C34.3628711,25.0366443 34.4677343,25.8656911 34.6747719,26.6723313 C34.1002649,27.2074026 33.8502064,28.0203166 34.0384225,28.8601187 L34.0384225,28.8601187 Z M41.2659184,50.2387719 L1.78805237,50.2656599 L1.77998597,47.1654728 C5.17594107,43.8439079 14.2891824,40.3287493 15.718728,39.8653793 C18.9345335,41.4607343 24.0638687,41.4679045 27.2931182,39.8859935 C29.1304652,40.4873885 38.0483204,44.0097172 41.2659184,47.1448587 L41.2659184,50.2387719 Z M27.1999064,38.0244472 C27.0529186,38.0244472 26.9032421,38.0629867 26.7714909,38.1319992 C23.9724495,39.6422089 19.0904839,39.6466902 16.2708284,38.1266216 C16.1426623,38.0594016 15.9965708,38.0235509 15.8531681,38.0235509 C15.053698,38.0235509 4.3585457,42.1329345 0.534175043,45.8739523 C0.19359364,46.2037785 0,46.6680447 0,47.1448587 L0,50.2656599 C0,51.2443833 0.789611096,52.0402682 1.7602681,52.0402682 L41.2937026,52.0402682 C42.2652559,52.0402682 43.0539707,51.2443833 43.0539707,50.2656599 L43.0539707,47.1448587 C43.0539707,46.6644597 42.8576883,46.1975046 42.5197957,45.8748486 C38.6963213,42.1329345 27.9993764,38.0244472 27.1999064,38.0244472 L27.1999064,38.0244472 Z M13.1043176,23.8661198 C13.5094303,23.6725261 13.710194,23.2073636 13.5748577,22.7762593 C13.270127,21.8253201 13.1168654,20.8376341 13.1168654,19.8409853 C13.1168654,14.8559491 16.8883563,10.8012379 21.5265372,10.8012379 C26.1647182,10.8012379 29.9380016,14.8559491 29.9380016,19.8409853 C29.9380016,20.8430117 29.7838437,21.8306977 29.4818018,22.775363 C29.3437767,23.2055711 29.5445405,23.6725261 29.9496531,23.8661198 C30.4784506,24.1170745 30.3798612,24.6924778 30.3547657,24.8054074 C30.3233964,24.9461213 30.1817862,25.4076987 29.6547813,25.4076987 C29.18693,25.4076987 28.7970539,25.7715831 28.7620995,26.2412269 C28.4797755,30.0924856 25.4378458,34.3856038 21.5265372,34.3856038 C17.6152287,34.3856038 14.5750915,30.0924856 14.2927675,26.2412269 C14.2569168,25.7715831 13.8401527,25.4076987 13.3714052,25.4076987 C12.8730808,25.4076987 12.7305744,24.945225 12.699205,24.8054074 C12.6750058,24.6924778 12.5755202,24.1170745 13.1043176,23.8661198 L13.1043176,23.8661198 Z M10.9550697,25.1988686 C11.1594186,26.113957 11.7706726,26.8013937 12.5844829,27.0756514 C13.2253137,31.6000064 16.8076923,36.1853076 21.5265372,36.1853076 C26.2435897,36.1853076 29.8277608,31.6035915 30.4694879,27.0801327 C31.2770243,26.8076676 31.8945522,26.1202309 32.098901,25.1997648 C32.3157976,24.2326929 32.0280959,23.2978866 31.3693398,22.6830475 C31.605058,21.7581001 31.726054,20.8044722 31.726054,19.8409853 C31.726054,13.8637817 27.1506117,9.00063776 21.5265372,9.00063776 C15.903359,9.00063776 11.328813,13.8637817 11.328813,19.8409853 C11.328813,20.8008871 11.449809,21.7545151 11.6864235,22.6821512 C11.0267711,23.2969903 10.7390694,24.2317966 10.9550697,25.1988686 L10.9550697,25.1988686 Z" id="Page-1"></path>
        </g>
    </g>
</svg>