<?xml version="1.0" encoding="UTF-8"?>
<svg width="40px" height="39px" viewBox="0 0 40 39" version="1.1" xmlns="http://www.w3.org/2000/svg" xmlns:xlink="http://www.w3.org/1999/xlink">
    <!-- Generator: Sketch 43.2 (39069) - http://www.bohemiancoding.com/sketch -->
    <title>icon-fair-treatment-red copy</title>
    <desc>Created with Sketch.</desc>
    <defs></defs>
    <g id="Page-1" stroke="none" stroke-width="1" fill="none" fill-rule="evenodd">
        <g id="icon-fair-treatment-red-copy" fill="#D84E4E">
            <path d="M29.6079761,23.2475227 L10.9481878,23.2475227 C10.4836737,23.2475227 10.1067251,23.6144638 10.1067251,24.0692755 C10.1067251,24.5224599 10.4836737,24.8910282 10.9481878,24.8910282 L29.6079761,24.8910282 C30.0733242,24.8910282 30.4494388,24.5224599 30.4494388,24.0692755 C30.4494388,23.6144638 30.0733242,23.2475227 29.6079761,23.2475227 M29.6079761,14.8404223 L10.9481878,14.8404223 C10.4836737,14.8404223 10.1067251,15.2073634 10.1067251,15.6621751 C10.1067251,16.1153595 10.4836737,16.4831142 10.9481878,16.4831142 L29.6079761,16.4831142 C30.0733242,16.4831142 30.4494388,16.1153595 30.4494388,15.6621751 C30.4494388,15.2073634 30.0733242,14.8404223 29.6079761,14.8404223 M19.9974554,37.3279717 C9.89823589,37.3279717 1.68292527,29.30978 1.68292527,19.4552557 C1.68292527,9.60235859 9.89823589,1.58823502 19.9974554,1.58823502 C30.0983429,1.58823502 38.3161554,9.60235859 38.3161554,19.4552557 C38.3161554,29.30978 30.0983429,37.3279717 19.9974554,37.3279717 M19.9974554,-0.0544569106 C8.97004172,-0.0544569106 0,8.69761692 0,19.4552557 C0,30.2153353 8.97004172,38.96985 19.9974554,38.96985 C31.027371,38.96985 39.9999146,30.2153353 39.9999146,19.4552557 C39.9999146,8.69761692 31.027371,-0.0544569106 19.9974554,-0.0544569106" id="Fill-1"></path>
        </g>
    </g>
</svg>