<?xml version="1.0" encoding="UTF-8"?>
<svg width="43px" height="52px" viewBox="0 0 43 52" version="1.1" xmlns="http://www.w3.org/2000/svg" xmlns:xlink="http://www.w3.org/1999/xlink">
    <!-- Generator: Sketch 43.2 (39069) - http://www.bohemiancoding.com/sketch -->
    <title>Fill 1</title>
    <desc>Created with Sketch.</desc>
    <defs></defs>
    <g id="Page-1" stroke="none" stroke-width="1" fill="none" fill-rule="evenodd">
        <g id="home-copy-4" transform="translate(-880.000000, -1035.000000)" fill="#D84E4E">
            <path d="M917.077679,1049.64112 L915.80738,1048.75888 L915.805299,1048.7568 C915.804258,1048.75576 915.802178,1048.75576 915.802178,1048.75576 L906.575078,1042.346 L909.899081,1037.49784 L920.398561,1044.79296 L917.077679,1049.64112 Z M913.580974,1060.66703 C913.635073,1067.96735 908.43215,1072.0862 905.046765,1073.99321 L905.044684,1069.33129 C906.27545,1068.16918 907.347038,1066.67937 908.001434,1065.07719 C908.938814,1062.78732 909.39762,1059.83577 907.884912,1058.4271 C907.175375,1057.76854 906.219269,1057.57919 905.039482,1057.83721 C904.765863,1057.89755 904.4808,1057.98286 904.182212,1058.0921 C904.140597,1058.1077 904.097942,1058.12123 904.055286,1058.13787 C903.747335,1058.25648 903.43002,1058.39173 903.097099,1058.56235 C903.050283,1058.58732 903.01595,1058.62893 902.973295,1058.6591 C902.799552,1058.78395 902.65598,1058.94729 902.585234,1059.15536 L899.879215,1067.07159 C899.689866,1067.64171 899.353825,1067.97672 898.875251,1068.07763 C898.338417,1068.18271 897.686101,1067.97047 897.309485,1067.54288 C896.975524,1067.1673 896.898536,1066.69809 897.0754,1066.15293 C897.199205,1065.78048 897.310525,1065.43091 897.426007,1065.07198 C897.427047,1065.06782 897.428088,1065.06366 897.430168,1065.0595 C897.714191,1064.1835 897.984689,1063.33351 898.237501,1062.53763 C899.209212,1059.4758 900.012383,1056.97785 901.031952,1054.65781 C901.297248,1054.05544 901.58023,1053.4645 901.88194,1052.87877 C902.211739,1052.2379 902.570669,1051.60223 902.962891,1050.96448 C903.549663,1050.00941 904.219666,1049.04498 904.995787,1048.04934 C905.66683,1047.18687 906.412779,1046.30047 907.267969,1045.36725 L913.965913,1050.01774 C913.698536,1051.36918 913.531036,1054.24791 913.580974,1060.66703 L913.580974,1060.66703 Z M899.087488,1084.88491 C899.278918,1083.98187 899.734603,1083.1194 900.41917,1082.42755 C901.13599,1081.70136 902.02135,1081.21447 902.974335,1081.03552 L902.976416,1084.87971 L899.087488,1084.88491 Z M905.040523,1060.00431 C905.811442,1059.74838 906.288975,1059.78583 906.476242,1059.96269 C906.964179,1060.4163 906.950654,1062.15685 906.08402,1064.28234 C905.796877,1064.98251 905.434826,1065.60882 905.042604,1066.17374 L905.040523,1060.00431 Z M891.075549,1067.91637 C890.658358,1068.73619 890.283822,1068.89225 889.935296,1068.89225 C889.354766,1068.89225 888.866829,1068.48962 888.579685,1067.91637 L891.075549,1067.91637 Z M894.096802,1065.8273 C894.597223,1064.85246 895.052908,1064.85246 895.255782,1064.85246 C895.280751,1064.85246 895.302598,1064.86079 895.327567,1064.86287 L895.064352,1065.70661 C895.053948,1065.74719 895.050827,1065.78672 895.042504,1065.8273 L894.096802,1065.8273 Z M896.996331,1084.88804 L888.34456,1084.90156 C887.884714,1081.6483 885.326428,1079.06089 882.088776,1078.58231 L882.088776,1055.60144 C885.326428,1055.12182 887.884714,1052.53441 888.34456,1049.28219 L896.996331,1049.29571 C897.205447,1050.74808 897.874409,1052.14218 898.948078,1053.23042 C899.046914,1053.33133 899.163436,1053.40312 899.267473,1053.49571 C898.134503,1056.01863 897.283475,1058.68511 896.261826,1061.90196 C896.16403,1062.20783 896.059993,1062.53451 895.959076,1062.85182 C895.731234,1062.79876 895.50027,1062.76235 895.255782,1062.76235 C893.201038,1062.76235 892.269901,1064.61838 891.841266,1065.8273 L888.548474,1065.8273 C888.699329,1065.51935 888.916767,1065.26029 889.183104,1065.08447 C889.662717,1064.76715 889.796926,1064.12108 889.483772,1063.6373 C889.169579,1063.15353 888.523505,1063.0214 888.049093,1063.3356 C887.206388,1063.88908 886.607131,1064.79524 886.361603,1065.8273 L886.061974,1065.8273 C885.489767,1065.8273 885.024719,1066.29443 885.024719,1066.87184 C885.024719,1067.44924 885.489767,1067.91637 886.061974,1067.91637 L886.373047,1067.91637 C886.793359,1069.67461 888.223877,1070.98236 889.935296,1070.98236 C891.959869,1070.98236 892.873319,1069.19812 893.338368,1067.91637 L895.164228,1067.91637 C895.3078,1068.31588 895.514835,1068.66232 895.759324,1068.93282 C896.644684,1069.91078 898.021102,1070.39039 899.294523,1070.12301 C900.50032,1069.87124 901.428336,1069.00253 901.843446,1067.73951 L902.257516,1066.53163 L902.973295,1064.43839 L902.973295,1078.96101 C901.465789,1079.15868 900.06024,1079.82868 898.948078,1080.95333 C897.874409,1082.04053 897.205447,1083.43359 896.996331,1084.88804 L896.996331,1084.88804 Z M882.076292,1084.90988 L882.084615,1080.67243 C884.221548,1081.09378 885.868464,1082.75734 886.273171,1084.90468 L882.076292,1084.90988 Z M886.273171,1049.27907 C885.868464,1051.42641 884.221548,1053.08893 882.084615,1053.51132 L882.076292,1049.27283 L886.273171,1049.27907 Z M901.466829,1049.29467 C901.010104,1050.01045 900.558581,1050.80426 900.14243,1051.65321 C899.531729,1051.00297 899.085408,1050.1998 898.892938,1049.29779 L901.466829,1049.29467 Z M922.431457,1043.6652 L910.222638,1035.18405 C910.042653,1035.0592 909.837699,1034.9999 909.633785,1034.9999 C909.305026,1034.9999 908.980429,1035.157 908.779636,1035.45038 L904.278967,1042.02036 C904.12187,1042.24924 904.062569,1042.53015 904.111467,1042.80272 C904.162445,1043.0753 904.317461,1043.31667 904.543223,1043.47377 L905.549267,1044.17186 C905.071734,1044.69933 904.709683,1045.13109 904.162445,1045.73451 C903.879463,1046.04766 903.442504,1046.5564 902.940003,1047.20352 L897.742281,1047.2108 C897.741241,1047.2108 897.741241,1047.20976 897.741241,1047.20976 L897.73812,1047.20976 C897.73708,1047.20976 897.736039,1047.2108 897.736039,1047.2108 L881.119145,1047.23369 C880.714439,1047.23473 880.373195,1047.47506 880.202573,1047.81526 L880.013225,1078.77582 L879.9997,1085.95338 C879.9997,1086.23116 880.10894,1086.4975 880.30349,1086.69413 C880.49804,1086.89076 880.762296,1087 881.036955,1087 L881.039036,1087 L897.964922,1086.97711 L897.967003,1086.97711 L897.969084,1086.97711 L904.015752,1086.96775 C904.586919,1086.96671 905.050927,1086.49958 905.050927,1085.92321 L905.047805,1076.36007 C908.690164,1074.52797 915.724149,1069.80258 915.655485,1060.65038 C915.61387,1055.27892 915.742876,1052.63324 915.866681,1051.33901 L916.753082,1051.95492 C917.224372,1052.28055 917.872527,1052.16403 918.196084,1051.68754 L922.694672,1045.11756 C923.02135,1044.64315 922.901707,1043.99187 922.431457,1043.6652 L922.431457,1043.6652 Z" id="Fill-1"></path>
        </g>
    </g>
</svg>