<?xml version="1.0" encoding="UTF-8"?>
<svg width="62px" height="52px" viewBox="0 0 62 52" version="1.1" xmlns="http://www.w3.org/2000/svg" xmlns:xlink="http://www.w3.org/1999/xlink">
    <!-- Generator: Sketch 43.2 (39069) - http://www.bohemiancoding.com/sketch -->
    <title>icon-safety-red</title>
    <desc>Created with Sketch.</desc>
    <defs></defs>
    <g id="Page-1" stroke="none" stroke-width="1" fill="none" fill-rule="evenodd">
        <g id="icon-safety-red" fill="#D84E4E">
            <path d="M36.156,48.775 C33.61,50.203 27.274,50.176 24.223,50.169 L23.501,50.167 L22.779,50.169 C19.728,50.179 13.392,50.203 10.846,48.775 C6.743,46.473 1.7,41.45 1.7,39.665 C1.7,38.362 2.94,37.223 5.386,36.28 C5.715,36.154 5.931,35.838 5.931,35.487 C5.931,30.722 7.462,26.351 10,22.949 L12.578,32.285 C12.682,32.662 13.024,32.909 13.397,32.909 C13.472,32.909 13.548,32.898 13.624,32.878 C14.076,32.753 14.342,32.285 14.217,31.832 L11.328,21.37 C12.974,19.6 14.929,18.192 17.088,17.239 L19.1,38.139 C19.13,38.443 19.319,38.708 19.596,38.833 C21.009,39.47 22.407,39.79 23.731,39.79 C25.084,39.79 26.358,39.456 27.487,38.791 C27.721,38.652 27.875,38.411 27.902,38.139 L29.91,17.237 C32.071,18.191 34.028,19.598 35.674,21.37 L32.785,31.832 C32.66,32.285 32.926,32.753 33.378,32.878 C33.454,32.898 33.53,32.909 33.605,32.909 C33.977,32.909 34.32,32.662 34.424,32.285 L37.002,22.949 C39.54,26.351 41.072,30.722 41.072,35.487 C41.072,35.838 41.288,36.154 41.616,36.28 C44.062,37.223 45.302,38.362 45.302,39.665 C45.302,41.45 40.259,46.473 36.156,48.775 Z M26.2526,37.525 C24.6836,38.29 22.7576,38.274 20.7436,37.473 L18.6026,15.266 C18.6026,14.525 20.6136,13.699 23.5016,13.699 C26.3876,13.699 28.3996,14.525 28.4036,15.185 L26.2526,37.525 Z M42.765,34.912 C42.55,25.963 37.317,18.394 30.08,15.472 L30.1,15.266 C30.1,12.855 26.545,12 23.501,12 C20.457,12 16.902,12.855 16.906,15.347 L16.918,15.474 C9.684,18.397 4.453,25.965 4.238,34.912 C1.425,36.111 0,37.709 0,39.665 C0,42.55 5.982,47.995 10.014,50.257 C12.951,51.906 19.35,51.889 22.785,51.868 L23.501,51.866 L24.217,51.868 C24.542,51.87 24.892,51.871 25.265,51.871 C28.832,51.871 34.329,51.75 36.988,50.257 C41.02,47.995 47.002,42.55 47.002,39.665 C47.002,37.709 45.577,36.111 42.765,34.912" id="Fill-1"></path>
        </g>
    </g>
</svg>