<?xml version="1.0" encoding="UTF-8"?>
<svg width="47px" height="40px" viewBox="0 0 47 40" version="1.1" xmlns="http://www.w3.org/2000/svg" xmlns:xlink="http://www.w3.org/1999/xlink">
    <!-- Generator: Sketch 43.2 (39069) - http://www.bohemiancoding.com/sketch -->
    <title>Artboard 6</title>
    <desc>Created with Sketch.</desc>
    <defs></defs>
    <g id="Page-1" stroke="none" stroke-width="1" fill="none" fill-rule="evenodd">
        <g id="Artboard-6" fill="#D84E4E">
            <path d="M36.2036,36.7882 C33.6796,38.2042 27.3596,38.1812 24.3176,38.1692 L23.5946,38.1672 L22.8716,38.1692 C19.8306,38.1812 13.5106,38.2042 10.9856,36.7882 C6.5936,34.3232 1.8876,29.3812 1.8876,27.7602 C1.8876,26.5002 3.1076,25.3912 5.5136,24.4632 C5.8776,24.3222 6.1186,23.9732 6.1186,23.5822 C6.1186,18.9662 7.5686,14.6552 10.0556,11.2572 L12.5816,20.4042 C12.6966,20.8232 13.0776,21.0982 13.4916,21.0982 C13.5746,21.0982 13.6596,21.0872 13.7436,21.0632 C14.2456,20.9252 14.5406,20.4042 14.4016,19.9022 L11.5246,9.4812 C13.1086,7.7942 14.9886,6.4202 17.1006,5.4732 L19.1006,26.2442 C19.1336,26.5812 19.3436,26.8742 19.6516,27.0142 C22.5356,28.3162 25.3686,28.2972 27.6286,26.9672 C27.8896,26.8132 28.0596,26.5442 28.0886,26.2442 L30.0886,5.4732 C32.2016,6.4202 34.0806,7.7942 35.6656,9.4812 L32.7876,19.9022 C32.6486,20.4042 32.9436,20.9252 33.4466,21.0632 C33.5306,21.0872 33.6156,21.0982 33.6986,21.0982 C34.1126,21.0982 34.4936,20.8232 34.6086,20.4042 L37.1346,11.2582 C39.6206,14.6552 41.0716,18.9662 41.0716,23.5822 C41.0716,23.9732 41.3116,24.3222 41.6756,24.4632 C44.0816,25.3912 45.3026,26.5002 45.3026,27.7602 C45.3026,29.3812 40.5966,34.3232 36.2036,36.7882 M23.5946,1.8892 C24.9706,1.8892 26.2906,2.0872 27.2166,2.4342 C27.9466,2.7062 28.3996,3.0612 28.4036,3.2712 L28.3486,3.9792 C28.3456,3.9982 28.3326,4.0142 28.3306,4.0322 L26.2586,25.5592 C24.7346,26.2822 22.8746,26.2642 20.9266,25.5022 L18.8586,4.0322 C18.8556,4.0022 18.8356,3.9762 18.8296,3.9472 L18.7906,3.3612 C18.7906,2.7462 20.6186,1.8892 23.5946,1.8892 M42.9506,22.9442 C42.7176,14.2042 37.7036,6.5472 30.2666,3.5132 L30.2876,3.3612 C30.2876,0.8802 26.6826,0.0002 23.5946,0.0002 C20.5076,0.0002 16.9016,0.8802 16.9056,3.4482 L16.9136,3.5172 C9.4816,6.5542 4.4716,14.2072 4.2386,22.9442 C1.4256,24.1572 -0.000399999997,25.7752 -0.000399999997,27.7602 C-0.000399999997,30.8802 6.5146,36.4442 10.0616,38.4342 C13.0196,40.0942 19.4366,40.0642 22.8786,40.0582 L23.5946,40.0562 L24.3106,40.0582 C24.6356,40.0592 24.9856,40.0592 25.3576,40.0592 C28.9336,40.0592 34.4486,39.9372 37.1276,38.4342 C40.6746,36.4442 47.1896,30.8802 47.1896,27.7602 C47.1896,25.7752 45.7646,24.1572 42.9506,22.9442" id="Fill-1"></path>
        </g>
    </g>
</svg>