<?xml version="1.0" encoding="UTF-8"?>
<svg width="42px" height="52px" viewBox="0 0 42 52" version="1.1" xmlns="http://www.w3.org/2000/svg" xmlns:xlink="http://www.w3.org/1999/xlink">
    <!-- Generator: Sketch 43.2 (39069) - http://www.bohemiancoding.com/sketch -->
    <title>icon-payment-red copy</title>
    <desc>Created with Sketch.</desc>
    <defs></defs>
    <g id="Page-1" stroke="none" stroke-width="1" fill="none" fill-rule="evenodd">
        <g id="icon-payment-red-copy" fill="#D84E4E">
            <path d="M36.93,14.7116934 L26.098,7.18869341 L29.648,2.00969341 L40.477,9.53269341 L36.93,14.7116934 Z M24.64,24.6496934 L24.778,24.6056934 C25.556,24.3476934 26.137,24.3486934 26.413,24.6076934 C27.036,25.1876934 26.888,27.1406934 26.069,29.1496934 C25.8,29.8046934 25.453,30.4346934 25.007,31.0776934 L24.644,31.6026934 L24.64,24.6496934 Z M33.961,14.8486934 C33.658,16.3856934 33.537,19.7566934 33.581,25.4556934 C33.637,32.9406934 28.194,37.1286934 24.944,38.9586934 L24.646,39.1266934 L24.644,34.0356934 L24.706,33.9766934 C25.967,32.7866934 27.001,31.3016934 27.617,29.7936934 C28.529,27.5646934 28.989,24.7046934 27.549,23.3646934 C26.898,22.7606934 26.001,22.5796934 24.882,22.8236934 C24.624,22.8806934 24.353,22.9606934 24.051,23.0696934 L23.924,23.1156934 C23.583,23.2476934 23.284,23.3806934 22.988,23.5316934 C22.934,23.5776934 22.912,23.5966934 22.891,23.6116934 C22.732,23.7276934 22.625,23.8606934 22.576,24.0086934 L19.868,31.9266934 C19.658,32.5646934 19.27,32.9466934 18.717,33.0636934 C18.099,33.1896934 17.376,32.9386934 16.959,32.4656934 C16.58,32.0406934 16.486,31.4926934 16.686,30.8816934 L17.036,29.8016934 C17.324,28.9126934 17.595,28.0646934 17.847,27.2686934 C18.744,24.4416934 19.592,21.7736934 20.65,19.3686934 C20.915,18.7656934 21.202,18.1626934 21.504,17.5786934 C21.838,16.9296934 22.204,16.2806934 22.592,15.6506934 C23.195,14.6706934 23.864,13.7106934 24.637,12.7166934 C25.351,11.8026934 26.098,10.9216934 26.921,10.0236934 L27.039,9.89469341 L33.987,14.7196934 L33.961,14.8486934 Z M18.64,49.8756934 L18.692,49.6346934 C18.895,48.6726934 19.374,47.7886934 20.076,47.0776934 C20.828,46.3156934 21.749,45.8156934 22.738,45.6296934 L22.975,45.5846934 L22.977,49.8706934 L18.64,49.8756934 Z M11.201,32.5076934 L11.054,32.7986934 C10.672,33.5486934 10.266,33.8836934 9.736,33.8836934 C9.117,33.8836934 8.542,33.4776934 8.201,32.7976934 L8.056,32.5076934 L11.201,32.5076934 Z M15.387,29.4746934 L15.008,30.8176934 L13.571,30.8176934 L13.72,30.5266934 C14.275,29.4426934 14.823,29.4426934 15.057,29.4426934 L15.387,29.4746934 Z M16.97,49.8786934 L7.97,49.8916934 L7.946,49.7196934 C7.5,46.5636934 4.997,44.0346934 1.86,43.5706934 L1.689,43.5456934 L1.689,20.2196934 L1.86,20.1936934 C4.997,19.7306934 7.5,17.2016934 7.946,14.0456934 L7.97,13.8736934 L16.97,13.8866934 L16.995,14.0586934 C17.201,15.4956934 17.875,16.8536934 18.891,17.8806934 C18.943,17.9326934 18.999,17.9766934 19.056,18.0206934 C19.105,18.0576934 19.154,18.0956934 19.201,18.1376934 L19.31,18.2346934 L19.25,18.3686934 C18.108,20.9116934 17.247,23.6186934 16.252,26.7536934 L15.894,27.8796934 L15.714,27.8386934 C15.465,27.7796934 15.256,27.7536934 15.057,27.7536934 C13.606,27.7536934 12.521,28.7396934 11.83,30.6846934 L11.784,30.8176934 L8.029,30.8176934 L8.169,30.5296934 C8.338,30.1856934 8.581,29.9006934 8.873,29.7076934 C9.261,29.4526934 9.369,28.9276934 9.116,28.5376934 C8.993,28.3486934 8.805,28.2196934 8.584,28.1736934 C8.367,28.1276934 8.144,28.1716934 7.959,28.2936934 C7.176,28.8086934 6.592,29.6716934 6.356,30.6636934 L6.32,30.8176934 L5.864,30.8176934 C5.402,30.8176934 5.026,31.1966934 5.026,31.6626934 C5.026,32.1286934 5.402,32.5076934 5.864,32.5076934 L6.332,32.5076934 L6.368,32.6616934 C6.778,34.3756934 8.161,35.5726934 9.736,35.5726934 C11.184,35.5726934 12.236,34.6136934 12.95,32.6396934 L12.997,32.5076934 L15.105,32.5076934 L15.153,32.6396934 C15.285,33.0066934 15.477,33.3346934 15.707,33.5896934 C16.555,34.5246934 17.867,34.9676934 19.054,34.7186934 C20.187,34.4826934 21.062,33.6626934 21.454,32.4686934 L22.974,28.0266934 L22.974,43.9266934 L22.8,43.9486934 C21.297,44.1476934 19.946,44.8166934 18.891,45.8846934 C17.875,46.9116934 17.201,48.2696934 16.995,49.7066934 L16.97,49.8786934 Z M1.677,49.9006934 L1.686,45.2206934 L1.924,45.2676934 C4.144,45.7046934 5.849,47.4286934 6.269,49.6576934 L6.314,49.8946934 L1.677,49.9006934 Z M6.314,13.8706934 L6.269,14.1076934 C5.849,16.3356934 4.144,18.0596934 1.924,18.4976934 L1.686,18.5446934 L1.677,13.8636934 L6.314,13.8706934 Z M21.633,13.8856934 L21.437,14.1926934 C20.958,14.9406934 20.516,15.7286934 20.122,16.5316934 L19.995,16.7916934 L19.797,16.5806934 C19.141,15.8836934 18.691,15.0356934 18.496,14.1316934 L18.444,13.8906934 L21.633,13.8856934 Z M42.117,8.61969341 L29.909,0.139693406 C29.544,-0.112306594 28.997,-0.0133065944 28.745,0.355693406 L24.245,6.92469341 C24.118,7.10769341 24.069,7.33869341 24.109,7.55869341 C24.149,7.77569341 24.277,7.97469341 24.457,8.10169341 L25.65,8.92969341 L25.497,9.09769341 C25.27,9.34969341 25.068,9.57969341 24.86,9.81669341 C24.632,10.0766934 24.397,10.3456934 24.112,10.6606934 C23.899,10.8956934 23.458,11.3966934 22.899,12.1176934 L22.838,12.1946934 L0.918,12.2246934 C0.623,12.2256934 0.353,12.3896934 0.201,12.6576934 L0.014,43.5666934 L0,50.7436934 C0,50.9676934 0.09,51.1866934 0.246,51.3446934 C0.404,51.5036934 0.615,51.5916934 0.838,51.5916934 L23.816,51.5586934 C24.276,51.5576934 24.651,51.1786934 24.651,50.7136934 L24.647,41.0266934 L24.757,40.9716934 C33.959,36.3476934 35.284,29.2576934 35.255,25.4426934 C35.213,19.9906934 35.348,17.3586934 35.468,16.1106934 L35.501,15.7726934 L36.668,16.5816934 C36.852,16.7096934 37.077,16.7566934 37.294,16.7166934 C37.515,16.6756934 37.705,16.5506934 37.831,16.3656934 L42.329,9.79569341 C42.593,9.41269341 42.497,8.88569341 42.117,8.61969341 L42.117,8.61969341 Z" id="Fill-1"></path>
        </g>
    </g>
</svg>