<?xml version="1.0" encoding="utf-8"?>
<!-- Generator: Adobe Illustrator 19.1.0, SVG Export Plug-In . SVG Version: 6.00 Build 0)  -->
<svg version="1.1" id="Layer_1" xmlns="http://www.w3.org/2000/svg" xmlns:xlink="http://www.w3.org/1999/xlink" x="0px" y="0px"
	 viewBox="0 0 216 108" style="enable-background:new 0 0 216 108;" xml:space="preserve">
<style type="text/css">
	.st0{fill:#5FA5DA;}
	.st1{fill:#FFFFFF;}
	.st2{font-family:'Merriweather-Regular';}
	.st3{font-size:32.2295px;}
	.st4{letter-spacing:-1;}
</style>
<g>
	<g>
		<path class="st0" d="M8,32.7l2,1.4c1.7,1.1,2.3,2.1,2.3,2.5v28.8c0,4.3,0.5,7.2,7.4,8.2c0,0,3.8,0.3,3.8,0.3
			c4,0.3,6.4,0.4,7.9,3.6l0.7,1.4l0.7-1.4c1.6-3,5.3-3.4,9.2-3.7l4.3-0.6c3.6-0.8,5.5-3.6,5.5-7.9V36.6c0-0.3,0-1.1,2.2-2.4l2.5-1.4
			H8 M51.4,34.3c-0.7,0.7-1.1,1.5-1.1,2.3v28.8c0,3.6-1.5,5.8-4.3,6.4l-4.1,0.5c-3.6,0.3-7.5,0.8-9.7,3.7c-1.9-3-4.9-3.4-8.5-3.6
			l-3.7-0.3c-6.1-0.9-6.1-3.2-6.1-6.6V36.6c0-0.8-0.6-1.6-1.2-2.3C16.2,34.3,47.5,34.3,51.4,34.3z"/>
		<path class="st0" d="M32.1,79.7C32.1,79.7,32.1,79.7,32.1,79.7c-0.3,0-0.5-0.2-0.6-0.4l-0.7-1.4c-1.3-2.8-3.3-3-7.3-3.2
			c-3.9-0.3-3.9-0.3-3.9-0.3c-7.4-1-8-4.5-8-8.9V36.6c0-0.1-0.5-0.9-2-1.9l-2-1.4c-0.3-0.2-0.4-0.5-0.3-0.8c0.1-0.3,0.4-0.5,0.7-0.5
			h48.5c0.3,0,0.6,0.2,0.7,0.5c0.1,0.3,0,0.6-0.3,0.8l-2.5,1.4c-0.7,0.4-1.9,1.2-1.9,1.8v28.8c0,4.6-2.2,7.7-6.1,8.6l-4.3,0.6
			c-3.9,0.4-7.2,0.7-8.7,3.4l-0.7,1.4C32.6,79.6,32.3,79.7,32.1,79.7z M10.2,33.4l0.2,0.1c1.6,1.1,2.6,2.3,2.6,3.1v28.8
			c0,4,0.3,6.6,6.8,7.5c0.1,0,3.8,0.3,3.8,0.3c4.1,0.3,6.8,0.4,8.4,4l0.1,0.1l0.1-0.1c1.8-3.4,5.8-3.7,9.7-4.1l4.3-0.6
			c4.1-0.9,4.9-4.4,4.9-7.2V36.6c0-0.7,0.3-1.7,2.6-3l0.3-0.1H10.2z M32.2,76.8C32.2,76.8,32.2,76.7,32.2,76.8
			c-0.3,0-0.5-0.1-0.6-0.3c-1.7-2.7-4.3-3-8-3.3l-3.7-0.3c-6.7-0.9-6.7-3.8-6.7-7.3V36.6c0-0.5-0.4-1.1-1-1.9
			c-0.2-0.2-0.3-0.5-0.1-0.8c0.1-0.3,0.4-0.4,0.6-0.4h38.8c0.3,0,0.5,0.2,0.6,0.4c0.1,0.3,0.1,0.6-0.1,0.8c-0.6,0.6-0.9,1.2-0.9,1.9
			v28.8c0,5-2.6,6.6-4.9,7.1l-4.1,0.5c-3.7,0.3-7.2,0.8-9.2,3.4C32.6,76.7,32.4,76.8,32.2,76.8z M14,35c0.3,0.6,0.5,1.1,0.5,1.6
			v28.8c0,3.4,0,5.2,5.5,5.9l3.7,0.3c3.7,0.2,6.5,0.6,8.5,3.2c2.4-2.4,6-2.9,9.6-3.2l4.1-0.5c2.5-0.5,3.7-2.4,3.7-5.7V36.6
			c0-0.6,0.1-1.1,0.4-1.6H14z"/>
	</g>
</g>
<text transform="matrix(1 0 0 1 18.3013 62.5048)" class="st1 st2 st3">w</text>
<text transform="matrix(1 0 0 1 55.6757 62.5048)"><tspan x="0" y="0" class="st1 st2 st3">orker</tspan><tspan x="85.9" y="0" class="st1 st2 st3 st4">.</tspan><tspan x="94" y="0" class="st1 st2 st3">gov</tspan></text>
</svg>
