<?xml version="1.0" encoding="UTF-8"?>
<svg width="492px" height="84px" viewBox="0 0 492 84" version="1.1" xmlns="http://www.w3.org/2000/svg" xmlns:xlink="http://www.w3.org/1999/xlink">
    <!-- Generator: Sketch 43.2 (39069) - http://www.bohemiancoding.com/sketch -->
    <title>Artboard 3</title>
    <desc>Created with Sketch.</desc>
    <defs>
        <polygon id="path-1" points="0 83 491.645 83 491.645 0.527 0 0.527"></polygon>
    </defs>
    <g id="Page-1" stroke="none" stroke-width="1" fill="none" fill-rule="evenodd">
        <g id="Artboard-3">
            <g id="Page-1">
                <polygon id="Fill-1" fill="#FFFFFF" points="113.715 13.3848 120.595 43.2238 122.093 51.5278 123.596 43.3938 129.482 13.3848 140.97 13.3848 147.161 43.2188 148.747 51.5278 150.355 43.5418 157.302 13.3848 168.387 13.3848 153.728 65.4898 143.303 65.4898 137.011 35.0188 135.173 24.9448 133.334 35.0188 127.042 65.4898 116.931 65.4898 102.155 13.3848"></polygon>
                <g id="Group-18" transform="translate(0.000000, 0.472700)">
                    <path d="M195.468,54.7354 C197.046,52.6414 197.836,49.6654 197.836,45.8044 C197.836,41.9464 197.046,38.9744 195.468,36.8924 C193.888,34.8104 191.626,33.7684 188.681,33.7684 C185.735,33.7684 183.466,34.8104 181.876,36.8924 C180.284,38.9744 179.489,41.9464 179.489,45.8044 C179.489,49.6654 180.284,52.6414 181.876,54.7354 C183.466,56.8304 185.735,57.8774 188.681,57.8774 C191.626,57.8774 193.888,56.8304 195.468,54.7354 Z M203.528,60.3034 C200.275,64.3184 195.338,66.3254 188.716,66.3254 C182.093,66.3254 177.156,64.3184 173.905,60.3034 C170.652,56.2894 169.027,51.4574 169.027,45.8044 C169.027,40.2484 170.652,35.4334 173.905,31.3594 C177.156,27.2864 182.093,25.2494 188.716,25.2494 C195.338,25.2494 200.275,27.2864 203.528,31.3594 C206.78,35.4334 208.406,40.2484 208.406,45.8044 C208.406,51.4574 206.78,56.2894 203.528,60.3034 Z" id="Fill-2" fill="#FFFFFF"></path>
                    <path d="M237.0207,25.585 C237.1497,25.597 237.4387,25.615 237.8867,25.638 L237.8867,35.96 C237.2507,35.89 236.6847,35.843 236.1907,35.818 C235.6957,35.796 235.2937,35.783 234.9887,35.783 C230.9347,35.783 228.2117,37.104 226.8227,39.742 C226.0447,41.228 225.6557,43.514 225.6557,46.601 L225.6557,65.018 L215.5107,65.018 L215.5107,26.486 L225.1257,26.486 L225.1257,33.203 C226.6807,30.635 228.0367,28.879 229.1907,27.936 C231.0767,26.357 233.5267,25.567 236.5437,25.567 C236.7317,25.567 236.8917,25.573 237.0207,25.585" id="Fill-4" fill="#FFFFFF"></path>
                    <polygon id="Fill-6" fill="#FFFFFF" points="243.6848 13.0889 253.5818 13.0889 253.5818 41.1969 266.2898 26.6629 278.8178 26.6629 265.0068 41.0179 279.3528 65.0179 267.0908 65.0179 257.7548 48.5549 253.5818 52.8929 253.5818 65.0179 243.6848 65.0179"></polygon>
                    <path d="M294.091,35.9697 C292.666,37.4377 291.773,39.4257 291.406,41.9347 L308.763,41.9347 C308.579,39.2597 307.686,37.2307 306.079,35.8457 C304.474,34.4607 302.482,33.7687 300.105,33.7687 C297.519,33.7687 295.514,34.5027 294.091,35.9697 M309.161,27.2667 C311.85,28.4707 314.07,30.3707 315.82,32.9667 C317.399,35.2567 318.422,37.9107 318.89,40.9327 C319.161,42.7027 319.273,45.2517 319.222,48.5797 L291.159,48.5797 C291.316,52.4457 292.658,55.1557 295.189,56.7097 C296.728,57.6767 298.579,58.1597 300.743,58.1597 C303.038,58.1597 304.904,57.5717 306.337,56.3927 C307.119,55.7557 307.811,54.8717 308.411,53.7407 L318.696,53.7407 C318.425,56.0277 317.181,58.3487 314.962,60.7047 C311.51,64.4517 306.678,66.3247 300.466,66.3247 C295.337,66.3247 290.814,64.7447 286.894,61.5847 C282.974,58.4237 281.014,53.2817 281.014,46.1577 C281.014,39.4847 282.782,34.3657 286.321,30.8037 C289.861,27.2417 294.453,25.4607 300.101,25.4607 C303.453,25.4607 306.474,26.0637 309.161,27.2667" id="Fill-8" fill="#FFFFFF"></path>
                    <path d="M345.7219,25.585 C345.8509,25.597 346.1399,25.615 346.5869,25.638 L346.5869,35.96 C345.9509,35.89 345.3859,35.843 344.8899,35.818 C344.3959,35.796 343.9939,35.783 343.6889,35.783 C339.6349,35.783 336.9129,37.104 335.5229,39.742 C334.7449,41.228 334.3569,43.514 334.3569,46.601 L334.3569,65.018 L324.2109,65.018 L324.2109,26.486 L333.8259,26.486 L333.8259,33.203 C335.3819,30.635 336.7359,28.879 337.8919,27.936 C339.7769,26.357 342.2279,25.567 345.2429,25.567 C345.4329,25.567 345.5909,25.573 345.7219,25.585" id="Fill-10" fill="#FFFFFF"></path>
                    <mask id="mask-2" fill="white">
                        <use xlink:href="#path-1"></use>
                    </mask>
                    <g id="Clip-13"></g>
                    <polygon id="Fill-12" fill="#FFFFFF" mask="url(#mask-2)" points="348.355 65.017 359.066 65.017 359.066 54.448 348.355 54.448"></polygon>
                    <path d="M391.1379,54.0771 C392.7569,52.2981 393.5679,49.4641 393.5679,45.5751 C393.5679,41.9231 392.7979,39.1411 391.2609,37.2321 C389.7239,35.3241 387.6649,34.3691 385.0829,34.3691 C381.5639,34.3691 379.1339,36.0311 377.7959,39.3531 C377.0929,41.1211 376.7409,43.3021 376.7409,45.8931 C376.7409,48.1331 377.1159,50.1241 377.8669,51.8671 C379.2279,55.1201 381.6689,56.7461 385.1889,56.7461 C387.5349,56.7461 389.5189,55.8561 391.1379,54.0771 M387.7059,26.4511 C390.1539,27.4651 392.1309,29.3261 393.6379,32.0361 L393.6379,26.4861 L403.4649,26.4861 L403.4649,63.0381 C403.4649,68.0101 402.6279,71.7571 400.9549,74.2791 C398.0789,78.6151 392.5659,80.7831 384.4109,80.7831 C379.4859,80.7831 375.4679,79.8171 372.3569,77.8851 C369.2459,75.9521 367.5269,73.0651 367.1969,69.2241 L378.1549,69.2241 C378.4369,70.4021 378.8979,71.2511 379.5339,71.7691 C380.6169,72.6881 382.4439,73.1481 385.0129,73.1481 C388.6419,73.1481 391.0699,71.9331 392.2939,69.5071 C393.0949,67.9511 393.4959,65.3361 393.4959,61.6591 L393.4959,59.1841 C392.5309,60.8351 391.4929,62.0721 390.3859,62.8961 C388.3819,64.4291 385.7789,65.1941 382.5739,65.1941 C377.6239,65.1941 373.6709,63.4571 370.7139,59.9801 C367.7549,56.5041 366.2769,51.7971 366.2769,45.8581 C366.2769,40.1321 367.7009,35.3181 370.5489,31.4181 C373.3969,27.5171 377.4329,25.5671 382.6589,25.5671 C384.5879,25.5671 386.2709,25.8621 387.7059,26.4511" id="Fill-14" fill="#FFFFFF" mask="url(#mask-2)"></path>
                    <path d="M436.9406,54.7354 C438.5196,52.6414 439.3096,49.6654 439.3096,45.8044 C439.3096,41.9464 438.5196,38.9744 436.9406,36.8924 C435.3626,34.8104 433.0996,33.7684 430.1536,33.7684 C427.2086,33.7684 424.9406,34.8104 423.3486,36.8924 C421.7586,38.9744 420.9626,41.9464 420.9626,45.8044 C420.9626,49.6654 421.7586,52.6414 423.3486,54.7354 C424.9406,56.8304 427.2086,57.8774 430.1536,57.8774 C433.0996,57.8774 435.3626,56.8304 436.9406,54.7354 M445.0016,60.3034 C441.7496,64.3184 436.8116,66.3254 430.1896,66.3254 C423.5676,66.3254 418.6296,64.3184 415.3786,60.3034 C412.1266,56.2894 410.4996,51.4574 410.4996,45.8044 C410.4996,40.2484 412.1266,35.4334 415.3786,31.3594 C418.6296,27.2864 423.5676,25.2494 430.1896,25.2494 C436.8116,25.2494 441.7496,27.2864 445.0016,31.3594 C448.2536,35.4334 449.8786,40.2484 449.8786,45.8044 C449.8786,51.4574 448.2536,56.2894 445.0016,60.3034" id="Fill-15" fill="#FFFFFF" mask="url(#mask-2)"></path>
                    <polygon id="Fill-16" fill="#FFFFFF" mask="url(#mask-2)" points="480.8273 26.4863 491.6443 26.4863 477.7303 65.0173 467.1083 65.0173 453.2903 26.4863 464.6023 26.4863 472.6263 54.9073"></polygon>
                    <path d="M15.2141,10.5273 L15.7251,11.1833 C16.4051,12.0613 16.7761,13.1403 16.7761,14.2513 L16.7761,56.9973 C16.7761,61.0293 17.9791,63.5283 23.9701,63.5283 L29.3901,63.5283 C35.0261,63.5283 39.7551,65.2543 43.1101,68.3753 C46.4661,65.2543 51.1941,63.5283 56.8311,63.5283 L62.2511,63.5283 C68.2421,63.5283 69.4451,61.0293 69.4451,56.9973 L69.4451,14.2513 C69.4451,13.1403 69.8161,12.0613 70.4961,11.1833 L71.0071,10.5273 L15.2141,10.5273 Z M43.1101,83.0003 C40.8171,83.0003 38.8171,81.4383 38.2601,79.2133 C37.3031,75.3873 34.4011,73.5283 29.3901,73.5283 L23.9701,73.5283 C13.2031,73.5283 6.7761,67.3483 6.7761,56.9973 L6.7761,15.9643 L1.0511,8.5943 C-0.1199,7.0873 -0.3299,5.0443 0.5091,3.3293 C1.3491,1.6143 3.0911,0.5273 5.0001,0.5273 L81.2211,0.5273 C83.1301,0.5273 84.8721,1.6143 85.7121,3.3293 C86.5511,5.0443 86.3411,7.0873 85.1701,8.5943 L79.4451,15.9643 L79.4451,56.9973 C79.4451,67.3483 73.0181,73.5283 62.2511,73.5283 L56.8311,73.5283 C51.8191,73.5283 48.9181,75.3873 47.9611,79.2133 C47.4041,81.4383 45.4041,83.0003 43.1101,83.0003 L43.1101,83.0003 Z" id="Fill-17" fill="#3689D1" mask="url(#mask-2)"></path>
                </g>
            </g>
        </g>
    </g>
</svg>