<?xml version="1.0" encoding="UTF-8"?>
<svg width="44px" height="26px" viewBox="0 0 44 26" version="1.1" xmlns="http://www.w3.org/2000/svg" xmlns:xlink="http://www.w3.org/1999/xlink">
    <!-- Generator: Sketch 43.2 (39069) - http://www.bohemiancoding.com/sketch -->
    <title>down-arrow</title>
    <desc>Created with Sketch.</desc>
    <defs></defs>
    <g id="Page-1" stroke="none" stroke-width="1" fill="none" fill-rule="evenodd">
        <g id="home-copy-4" transform="translate(-578.000000, -480.000000)" fill="#A3D4FF">
            <path d="M621.286008,482.627201 C621.579082,482.920275 621.720386,483.255217 621.720386,483.632026 C621.720386,484.019303 621.579082,484.349011 621.286008,484.642086 L600.870252,505.057842 C600.577178,505.350916 600.242236,505.492219 599.860193,505.492219 C599.483383,505.492219 599.148441,505.350916 598.855367,505.057842 L578.439611,484.642086 C578.151771,484.349011 578,484.019303 578,483.632026 C578,483.255217 578.151771,482.920275 578.439611,482.627201 L580.627201,480.439611 C580.920275,480.146537 581.26045,480 581.63726,480 C582.019303,480 582.354245,480.146537 582.647319,480.439611 L599.860193,497.652485 L617.0783,480.439611 C617.371375,480.146537 617.706317,480 618.08836,480 C618.465169,480 618.800111,480.146537 619.093185,480.439611 L621.286008,482.627201 Z" id="down-arrow"></path>
        </g>
    </g>
</svg>