<?xml version="1.0" encoding="UTF-8"?>
<svg width="634px" height="186px" viewBox="0 0 634 186" version="1.1" xmlns="http://www.w3.org/2000/svg" xmlns:xlink="http://www.w3.org/1999/xlink">
    <!-- Generator: Sketch 43.2 (39069) - http://www.bohemiancoding.com/sketch -->
    <title>Artboard 4</title>
    <desc>Created with Sketch.</desc>
    <defs></defs>
    <g id="Page-1" stroke="none" stroke-width="1" fill="none" fill-rule="evenodd">
        <g id="Artboard-4" fill="#61AEF0">
            <path d="M14.497,185.6425 C10.673,185.6425 7.075,184.1735 4.342,181.4895 C1.542,178.7405 0,175.0665 0,171.1425 L0,79.4545003 C0,76.6675003 1.158,73.9675003 3.178,72.0475003 L34.608,42.1505003 C36.936,39.9355003 40.104,38.8345003 43.309,39.1445003 C46.509,39.4495003 49.417,41.1245003 51.285,43.7415003 L79.192,82.8115003 L97.214,71.9985003 C98.395,71.2875003 99.934,71.6715003 100.643,72.8565003 C101.354,74.0395003 100.97,75.5765003 99.786,76.2865003 L79.786,88.2865003 C78.668,88.9585003 77.223,88.6565003 76.466,87.5955003 L47.217,46.6475003 C46.189,45.2095003 44.593,44.2885003 42.834,44.1215003 C41.086,43.9565003 39.334,44.5565003 38.054,45.7735003 L6.623,75.6705003 C5.592,76.6525003 5,78.0315003 5,79.4545003 L5,171.1425 C5,173.7125 6.011,176.1215 7.845,177.9215 C9.679,179.7225 12.139,180.7275 14.679,180.6405 C19.818,180.5465 24,176.1075 24,170.7445 L24,100.4665 C24,98.3185003 24.82,96.2825003 26.31,94.7335003 L49.698,70.4105003 C50.654,69.4135003 52.238,69.3825003 53.232,70.3405003 C54.227,71.2975003 54.259,72.8795003 53.302,73.8745003 L29.913,98.1995003 C29.324,98.8125003 29,99.6175003 29,100.4665 L29,170.7445 C29,178.8145 22.616,185.4965 14.77,185.6405 C14.679,185.6415 14.588,185.6425 14.497,185.6425" id="Fill-1"></path>
            <path d="M102.497,68.6425003 C101.226,68.6425003 100.138,67.6765003 100.012,66.3855003 C99.878,65.0105003 100.883,63.7885003 102.257,63.6545003 L143.257,59.6545003 C144.643,59.5285003 145.854,60.5265003 145.988,61.8995003 C146.122,63.2745003 145.117,64.4965003 143.743,64.6305003 L102.743,68.6305003 C102.66,68.6385003 102.578,68.6425003 102.497,68.6425003" id="Fill-3"></path>
            <path d="M141.869,39.9628003 C140.418,39.9628003 139.652,40.2948003 139.471,40.6088003 C139.209,41.0618003 139.522,42.5768003 141.454,44.8978003 C143.581,47.4518003 146.89,50.0938003 150.775,52.3358003 C159.72,57.4998003 165.913,57.4278003 166.584,56.2628003 C166.846,55.8108003 166.532,54.2948003 164.6,51.9748003 C162.473,49.4198003 159.164,46.7778003 155.279,44.5358003 C151.394,42.2928003 147.451,40.7468003 144.176,40.1828003 C143.27,40.0258003 142.504,39.9628003 141.869,39.9628003 M164.185,60.8968003 C159.838,60.8968003 154.008,58.8208003 148.775,55.8008003 C144.492,53.3268003 140.801,50.3638003 138.38,47.4568003 C134.728,43.0698003 135.073,40.2248003 136.006,38.6088003 C136.938,36.9928003 139.232,35.2728003 144.855,36.2398003 C148.584,36.8828003 152.996,38.5988003 157.279,41.0708003 C161.562,43.5448003 165.254,46.5078003 167.675,49.4148003 C171.326,53.8018003 170.981,56.6478003 170.049,58.2628003 C168.983,60.1068003 166.866,60.8968003 164.185,60.8968003" id="Fill-5"></path>
            <path d="M127.9999,53.1425003 C127.9999,51.7615003 126.8809,50.6425003 125.4999,50.6425003 C124.1189,50.6425003 122.9999,51.7615003 122.9999,53.1425003 C122.9999,54.5235003 124.1189,55.6425003 125.4999,55.6425003 C126.8809,55.6425003 127.9999,54.5235003 127.9999,53.1425003" id="Fill-8"></path>
            <path d="M123.9999,44.1425003 C123.9999,42.7615003 122.8809,41.6425003 121.4999,41.6425003 C120.1189,41.6425003 118.9999,42.7615003 118.9999,44.1425003 C118.9999,45.5235003 120.1189,46.6425003 121.4999,46.6425003 C122.8809,46.6425003 123.9999,45.5235003 123.9999,44.1425003" id="Fill-10"></path>
            <path d="M124.9999,34.1425003 C124.9999,32.7615003 123.8809,31.6425003 122.4999,31.6425003 C121.1189,31.6425003 119.9999,32.7615003 119.9999,34.1425003 C119.9999,35.5235003 121.1189,36.6425003 122.4999,36.6425003 C123.8809,36.6425003 124.9999,35.5235003 124.9999,34.1425003" id="Fill-12"></path>
            <path d="M128.9999,26.1425003 C128.9999,24.7615003 127.8809,23.6425003 126.4999,23.6425003 C125.1189,23.6425003 123.9999,24.7615003 123.9999,26.1425003 C123.9999,27.5235003 125.1189,28.6425003 126.4999,28.6425003 C127.8809,28.6425003 128.9999,27.5235003 128.9999,26.1425003" id="Fill-14"></path>
            <path d="M136.9999,22.1425003 C136.9999,20.7615003 135.8809,19.6425003 134.4999,19.6425003 C133.1189,19.6425003 131.9999,20.7615003 131.9999,22.1425003 C131.9999,23.5235003 133.1189,24.6425003 134.4999,24.6425003 C135.8809,24.6425003 136.9999,23.5235003 136.9999,22.1425003" id="Fill-16"></path>
            <path d="M146.9999,21.1425003 C146.9999,19.7615003 145.8809,18.6425003 144.4999,18.6425003 C143.1189,18.6425003 141.9999,19.7615003 141.9999,21.1425003 C141.9999,22.5235003 143.1189,23.6425003 144.4999,23.6425003 C145.8809,23.6425003 146.9999,22.5235003 146.9999,21.1425003" id="Fill-18"></path>
            <path d="M153.9999,25.1425003 C153.9999,23.7615003 152.8809,22.6425003 151.4999,22.6425003 C150.1189,22.6425003 148.9999,23.7615003 148.9999,25.1425003 C148.9999,26.5235003 150.1189,27.6425003 151.4999,27.6425003 C152.8809,27.6425003 153.9999,26.5235003 153.9999,25.1425003" id="Fill-20"></path>
            <path d="M159.9999,31.1425003 C159.9999,29.7615003 158.8809,28.6425003 157.4999,28.6425003 C156.1189,28.6425003 154.9999,29.7615003 154.9999,31.1425003 C154.9999,32.5235003 156.1189,33.6425003 157.4999,33.6425003 C158.8809,33.6425003 159.9999,32.5235003 159.9999,31.1425003" id="Fill-22"></path>
            <path d="M56.7831,22.5302003 C54.2561,29.5492003 57.1161,37.5872003 63.8431,41.3242003 C67.4621,43.3362003 71.6451,43.8142003 75.6291,42.6782003 C78.7961,41.7732003 81.5331,39.9292003 83.5321,37.3902003 L56.7831,22.5302003 Z M71.3411,48.2842003 C67.9021,48.2842003 64.5031,47.4112003 61.4151,45.6952003 C51.5341,40.2062003 47.9611,27.7012003 53.4501,17.8192003 C53.7721,17.2392003 54.3111,16.8112003 54.9491,16.6302003 C55.5841,16.4462003 56.2691,16.5252003 56.8491,16.8472003 L88.3191,34.3312003 C88.8991,34.6532003 89.3271,35.1922003 89.5101,35.8302003 C89.6911,36.4682003 89.6131,37.1512003 89.2911,37.7302003 C86.6321,42.5172003 82.2671,45.9822003 77.0021,47.4862003 C75.1351,48.0202003 73.2311,48.2842003 71.3411,48.2842003 L71.3411,48.2842003 Z" id="Fill-24"></path>
            <path d="M63.4472,10.9208003 L90.0682,26.1498003 C92.8502,19.0398003 90.0102,10.7688003 83.1572,6.96080028 C79.5382,4.94880028 75.3532,4.46880028 71.3712,5.60680028 C68.1922,6.51480028 65.4482,8.36780028 63.4472,10.9208003 M102.4982,38.6428003 C102.0772,38.6428003 101.6502,38.5358003 101.2592,38.3128003 L58.6532,13.9388003 C57.4652,13.2588003 57.0452,11.7508003 57.7092,10.5548003 C60.3682,5.76780028 64.7322,2.30280028 69.9982,0.798800277 C75.2602,-0.707199723 80.7992,-0.0691997234 85.5852,2.58980028 C94.8702,7.74780028 98.5852,19.1028003 94.4432,28.6528003 L103.7412,33.9728003 C104.9392,34.6578003 105.3552,36.1858003 104.6702,37.3838003 C104.2082,38.1908003 103.3652,38.6428003 102.4982,38.6428003" id="Fill-26"></path>
            <path d="M47.4999,185.6425 C46.1189,185.6425 44.9999,184.5235 44.9999,183.1425 L44.9999,114.3925 C44.9999,109.5675 48.9249,105.6425 53.7499,105.6425 L164.4999,105.6425 C165.8809,105.6425 166.9999,106.7615 166.9999,108.1425 C166.9999,109.5235 165.8809,110.6425 164.4999,110.6425 L53.7499,110.6425 C51.6829,110.6425 49.9999,112.3255 49.9999,114.3925 L49.9999,183.1425 C49.9999,184.5235 48.8809,185.6425 47.4999,185.6425" id="Fill-28"></path>
            <path d="M265.5,12 C256.402,12 249,19.402 249,28.5 C249,37.598 256.402,45 265.5,45 C274.598,45 282,37.598 282,28.5 C282,19.402 274.598,12 265.5,12 M265.5,50 C253.645,50 244,40.355 244,28.5 C244,16.645 253.645,7 265.5,7 C277.355,7 287,16.645 287,28.5 C287,40.355 277.355,50 265.5,50" id="Fill-1"></path>
            <path d="M318.6953,185.915 L318.6683,185.915 C308.2543,185.893 305.1743,177.137 305.0023,172.511 L305.0003,142 L252.4633,142 C250.4903,142 248.6053,141.156 247.2913,139.686 C245.9773,138.216 245.3493,136.249 245.5703,134.289 L254.0153,59.221 C254.1583,57.956 255.2273,57 256.5003,57 L274.5003,57 C275.2993,57 276.0513,57.383 276.5213,58.029 L291.9283,79.214 L324.9343,85.038 C326.2943,85.278 327.2023,86.575 326.9623,87.935 C326.7213,89.295 325.4293,90.207 324.0653,89.962 L290.0653,83.962 C289.4273,83.85 288.8593,83.494 288.4783,82.971 L273.2263,62 L258.7343,62 L250.5393,134.848 C250.4553,135.597 250.8033,136.113 251.0193,136.354 C251.2343,136.596 251.7093,137 252.4633,137 L307.5003,137 C308.8813,137 310.0003,138.119 310.0003,139.5 L310.0003,172.355 C310.0583,173.417 310.7563,180.897 318.6783,180.915 L318.6953,180.915 C320.8413,180.915 322.8793,180.061 324.4363,178.507 C326.0653,176.881 327.0003,174.625 327.0003,172.318 L327.0003,126.729 C327.0003,124.122 324.8783,122 322.2703,122 L273.5003,122 C272.7983,122 272.1283,121.704 271.6543,121.186 C271.1803,120.667 270.9463,119.974 271.0103,119.273 L272.0103,108.273 C272.1343,106.898 273.3553,105.87 274.7263,106.011 C276.1013,106.136 277.1143,107.352 276.9893,108.727 L276.2373,117 L322.2703,117 C327.6353,117 332.0003,121.364 332.0003,126.729 L332.0003,172.318 C332.0003,175.943 330.5303,179.488 327.9673,182.046 C325.4663,184.542 322.1743,185.915 318.6953,185.915" id="Fill-3"></path>
            <path d="M228.5,186 C227.119,186 226,184.881 226,183.5 L226,82.5 C226,81.119 227.119,80 228.5,80 C229.881,80 231,81.119 231,82.5 L231,183.5 C231,184.881 229.881,186 228.5,186" id="Fill-5"></path>
            <path d="M279.5,186 C278.119,186 277,184.881 277,183.5 L277,160.917 C277,159.033 275.467,157.5 273.583,157.5 L228.5,157.5 C227.119,157.5 226,156.381 226,155 C226,153.619 227.119,152.5 228.5,152.5 L273.583,152.5 C278.225,152.5 282,156.275 282,160.917 L282,183.5 C282,184.881 280.881,186 279.5,186" id="Fill-7"></path>
            <path d="M372.5,186 C371.119,186 370,184.881 370,183.5 L370,115.417 C370,112.981 368.019,111 365.583,111 L312.5,111 C311.119,111 310,109.881 310,108.5 C310,107.119 311.119,106 312.5,106 L365.583,106 C370.775,106 375,110.225 375,115.417 L375,183.5 C375,184.881 373.881,186 372.5,186" id="Fill-9"></path>
            <path d="M356.5,99 L323.5,99 C322.119,99 321,97.881 321,96.5 C321,95.119 322.119,94 323.5,94 L354.597,94 L362.09,66.835 C362.457,65.504 363.83,64.72 365.165,65.09 C366.496,65.457 367.277,66.834 366.91,68.165 L358.91,97.165 C358.611,98.249 357.625,99 356.5,99" id="Fill-11"></path>
            <path d="M505.5936,8 C496.4956,8 489.0936,15.402 489.0936,24.5 C489.0936,33.598 496.4956,41 505.5936,41 C514.6916,41 522.0936,33.598 522.0936,24.5 C522.0936,15.402 514.6916,8 505.5936,8 M505.5936,46 C493.7386,46 484.0936,36.355 484.0936,24.5 C484.0936,12.645 493.7386,3 505.5936,3 C517.4486,3 527.0936,12.645 527.0936,24.5 C527.0936,36.355 517.4486,46 505.5936,46" id="Fill-1"></path>
            <path d="M502.5926,102 C502.0026,102 501.4096,101.792 500.9326,101.369 C499.9006,100.452 499.8076,98.872 500.7246,97.84 L522.4786,73.356 C522.9326,72.847 522.9406,72.079 522.4996,71.565 L513.2026,60.719 C509.5966,59.768 494.0576,55.661 487.9066,53.904 C482.5696,52.379 479.3906,53.463 478.7806,53.709 L455.4516,68.706 C454.7946,69.129 454.6316,69.75 454.5916,70.083 C454.5536,70.416 454.5696,71.059 455.1116,71.62 L478.3936,95.765 C479.3516,96.759 479.3226,98.341 478.3286,99.3 C477.3356,100.259 475.7526,100.229 474.7936,99.235 L451.5116,75.091 C450.0736,73.6 449.3856,71.563 449.6256,69.504 C449.8656,67.445 451.0036,65.621 452.7476,64.5 L476.2416,49.397 C476.3176,49.349 476.3956,49.304 476.4756,49.264 C476.9736,49.015 481.5686,46.894 489.2806,49.096 C496.1756,51.066 515.0396,56.032 515.2296,56.082 C515.7206,56.212 516.1606,56.487 516.4916,56.873 L526.2966,68.312 C528.3586,70.718 528.3226,74.316 526.2126,76.681 L504.4626,101.16 C503.9686,101.717 503.2816,102 502.5926,102" id="Fill-3"></path>
            <path d="M532.0941,146.5 C531.4211,146.5 530.7491,146.229 530.2571,145.695 L482.2571,93.695 C481.3201,92.681 481.3831,91.1 482.3981,90.163 C483.4121,89.227 484.9941,89.289 485.9301,90.305 L533.9301,142.305 C534.8671,143.319 534.8041,144.9 533.7891,145.837 C533.3081,146.28 532.7001,146.5 532.0941,146.5" id="Fill-5"></path>
            <path d="M441.8255,179.29 C439.8895,179.29 437.9285,178.814 436.1175,177.813 C433.3495,176.283 431.3425,173.767 430.4675,170.727 C429.5925,167.687 429.9535,164.489 431.4835,161.721 L464.9015,100.798 C465.5655,99.588 467.0855,99.144 468.2955,99.808 C469.5065,100.472 469.9495,101.992 469.2855,103.202 L435.8635,164.133 C434.9755,165.74 434.7665,167.588 435.2725,169.344 C435.7785,171.1 436.9375,172.554 438.5365,173.438 C441.8365,175.262 446.0085,174.061 447.8345,170.761 L481.9025,108.796 C482.5685,107.585 484.0875,107.145 485.2985,107.81 C486.5085,108.475 486.9495,109.994 486.2845,111.204 L452.2135,173.175 C450.0525,177.082 445.9985,179.29 441.8255,179.29" id="Fill-7"></path>
            <path d="M487.5907,185.498 C486.8117,185.498 486.0217,185.421 485.2287,185.26 C478.8307,183.959 474.6827,177.695 475.9837,171.296 L488.6597,117.428 C488.9757,116.082 490.3207,115.253 491.6667,115.566 C493.0097,115.883 493.8437,117.228 493.5277,118.572 L480.8667,172.366 C480.1317,175.989 482.5287,179.608 486.2247,180.359 C489.9237,181.11 493.5407,178.714 494.2927,175.018 L503.6447,129.497 C503.9227,128.144 505.2427,127.275 506.5967,127.551 C507.9487,127.829 508.8197,129.15 508.5427,130.503 L499.1907,176.019 C498.0517,181.62 493.1027,185.498 487.5907,185.498" id="Fill-10"></path>
            <path d="M538.3627,167.6953 C544.4977,168.7923 551.7707,168.6793 552.9497,166.7143 C556.0037,161.6243 555.8247,153.7083 555.6707,151.1123 L543.0937,138.5353 L526.5697,155.0593 L538.3627,167.6953 Z M545.8777,173.4093 C541.7847,173.4093 537.9257,172.7163 536.6037,172.4513 C536.0907,172.3483 535.6227,172.0883 535.2657,171.7063 L521.2657,156.7063 C520.3467,155.7203 520.3737,154.1843 521.3257,153.2323 L541.3257,133.2323 C542.3017,132.2563 543.8857,132.2563 544.8617,133.2323 L559.8617,148.2323 C560.2677,148.6373 560.5217,149.1723 560.5807,149.7423 C560.6307,150.2293 561.7617,161.7453 557.2377,169.2863 C555.2787,172.5503 550.4337,173.4093 545.8777,173.4093 L545.8777,173.4093 Z" id="Fill-12"></path>
            <path d="M567.7098,180.5 L626.0578,180.5 L627.5978,178.96 C621.9058,173.161 614.8458,167.5 612.0938,167.5 C610.7128,167.5 609.5938,166.381 609.5938,165 C609.5878,163.247 609.0238,157.822 606.5938,156 C604.5268,154.448 599.2838,156.2 597.2118,157.236 C596.9888,157.348 596.7508,157.425 596.5048,157.466 C595.7608,157.59 589.1258,158.567 585.3258,154.768 C585.2808,154.724 585.2378,154.676 585.1958,154.628 C583.5788,152.744 581.4978,150.897 580.3908,150.314 C579.2908,151.754 578.0268,154.401 577.4148,155.93 C577.3228,156.157 577.1988,156.37 577.0458,156.562 L573.5938,160.877 L573.5938,167 C573.5938,167.742 573.2638,168.445 572.6938,168.921 C572.5188,169.072 568.4528,172.667 567.7098,180.5 M627.0938,185.5 L565.0938,185.5 C563.7128,185.5 562.5938,184.381 562.5938,183 C562.5938,173.5 566.7178,167.978 568.5938,165.957 L568.5938,160 C568.5938,159.433 568.7868,158.882 569.1418,158.438 L572.9168,153.719 C573.4628,152.412 575.2908,148.268 577.3258,146.232 C578.0698,145.488 579.0978,145.108 580.1758,145.144 C583.3708,145.267 587.3008,149.413 588.9188,151.288 C590.5188,152.808 593.8928,152.756 595.3578,152.58 C597.3128,151.666 604.9198,148.495 609.5938,152 C613.1708,154.683 614.1908,159.947 614.4808,162.917 C621.3168,165.089 630.8828,175.099 632.9258,177.299 C633.8408,178.284 633.8128,179.817 632.8608,180.768 L628.8608,184.768 C628.3928,185.236 627.7568,185.5 627.0938,185.5" id="Fill-14"></path>
        </g>
    </g>
</svg>