<?xml version="1.0" encoding="UTF-8"?>
<svg width="171px" height="186px" viewBox="0 0 171 186" version="1.1" xmlns="http://www.w3.org/2000/svg" xmlns:xlink="http://www.w3.org/1999/xlink">
    <!-- Generator: Sketch 43.2 (39069) - http://www.bohemiancoding.com/sketch -->
    <title>Artboard 2</title>
    <desc>Created with Sketch.</desc>
    <defs></defs>
    <g id="Page-1" stroke="none" stroke-width="1" fill="none" fill-rule="evenodd">
        <g id="Artboard-2" fill="#FFFFFF">
            <path d="M14.497,185.6425 C10.673,185.6425 7.075,184.1735 4.342,181.4895 C1.542,178.7405 0,175.0665 0,171.1425 L0,79.4545003 C0,76.6675003 1.158,73.9675003 3.178,72.0475003 L34.608,42.1505003 C36.936,39.9355003 40.104,38.8345003 43.309,39.1445003 C46.509,39.4495003 49.417,41.1245003 51.285,43.7415003 L79.192,82.8115003 L97.214,71.9985003 C98.395,71.2875003 99.934,71.6715003 100.643,72.8565003 C101.354,74.0395003 100.97,75.5765003 99.786,76.2865003 L79.786,88.2865003 C78.668,88.9585003 77.223,88.6565003 76.466,87.5955003 L47.217,46.6475003 C46.189,45.2095003 44.593,44.2885003 42.834,44.1215003 C41.086,43.9565003 39.334,44.5565003 38.054,45.7735003 L6.623,75.6705003 C5.592,76.6525003 5,78.0315003 5,79.4545003 L5,171.1425 C5,173.7125 6.011,176.1215 7.845,177.9215 C9.679,179.7225 12.139,180.7275 14.679,180.6405 C19.818,180.5465 24,176.1075 24,170.7445 L24,100.4665 C24,98.3185003 24.82,96.2825003 26.31,94.7335003 L49.698,70.4105003 C50.654,69.4135003 52.238,69.3825003 53.232,70.3405003 C54.227,71.2975003 54.259,72.8795003 53.302,73.8745003 L29.913,98.1995003 C29.324,98.8125003 29,99.6175003 29,100.4665 L29,170.7445 C29,178.8145 22.616,185.4965 14.77,185.6405 C14.679,185.6415 14.588,185.6425 14.497,185.6425" id="Fill-1"></path>
            <path d="M102.497,68.6425003 C101.226,68.6425003 100.138,67.6765003 100.012,66.3855003 C99.878,65.0105003 100.883,63.7885003 102.257,63.6545003 L143.257,59.6545003 C144.643,59.5285003 145.854,60.5265003 145.988,61.8995003 C146.122,63.2745003 145.117,64.4965003 143.743,64.6305003 L102.743,68.6305003 C102.66,68.6385003 102.578,68.6425003 102.497,68.6425003" id="Fill-3"></path>
            <path d="M141.869,39.9628003 C140.418,39.9628003 139.652,40.2948003 139.471,40.6088003 C139.209,41.0618003 139.522,42.5768003 141.454,44.8978003 C143.581,47.4518003 146.89,50.0938003 150.775,52.3358003 C159.72,57.4998003 165.913,57.4278003 166.584,56.2628003 C166.846,55.8108003 166.532,54.2948003 164.6,51.9748003 C162.473,49.4198003 159.164,46.7778003 155.279,44.5358003 C151.394,42.2928003 147.451,40.7468003 144.176,40.1828003 C143.27,40.0258003 142.504,39.9628003 141.869,39.9628003 M164.185,60.8968003 C159.838,60.8968003 154.008,58.8208003 148.775,55.8008003 C144.492,53.3268003 140.801,50.3638003 138.38,47.4568003 C134.728,43.0698003 135.073,40.2248003 136.006,38.6088003 C136.938,36.9928003 139.232,35.2728003 144.855,36.2398003 C148.584,36.8828003 152.996,38.5988003 157.279,41.0708003 C161.562,43.5448003 165.254,46.5078003 167.675,49.4148003 C171.326,53.8018003 170.981,56.6478003 170.049,58.2628003 C168.983,60.1068003 166.866,60.8968003 164.185,60.8968003" id="Fill-5"></path>
            <path d="M127.9999,53.1425003 C127.9999,51.7615003 126.8809,50.6425003 125.4999,50.6425003 C124.1189,50.6425003 122.9999,51.7615003 122.9999,53.1425003 C122.9999,54.5235003 124.1189,55.6425003 125.4999,55.6425003 C126.8809,55.6425003 127.9999,54.5235003 127.9999,53.1425003" id="Fill-8"></path>
            <path d="M123.9999,44.1425003 C123.9999,42.7615003 122.8809,41.6425003 121.4999,41.6425003 C120.1189,41.6425003 118.9999,42.7615003 118.9999,44.1425003 C118.9999,45.5235003 120.1189,46.6425003 121.4999,46.6425003 C122.8809,46.6425003 123.9999,45.5235003 123.9999,44.1425003" id="Fill-10"></path>
            <path d="M124.9999,34.1425003 C124.9999,32.7615003 123.8809,31.6425003 122.4999,31.6425003 C121.1189,31.6425003 119.9999,32.7615003 119.9999,34.1425003 C119.9999,35.5235003 121.1189,36.6425003 122.4999,36.6425003 C123.8809,36.6425003 124.9999,35.5235003 124.9999,34.1425003" id="Fill-12"></path>
            <path d="M128.9999,26.1425003 C128.9999,24.7615003 127.8809,23.6425003 126.4999,23.6425003 C125.1189,23.6425003 123.9999,24.7615003 123.9999,26.1425003 C123.9999,27.5235003 125.1189,28.6425003 126.4999,28.6425003 C127.8809,28.6425003 128.9999,27.5235003 128.9999,26.1425003" id="Fill-14"></path>
            <path d="M136.9999,22.1425003 C136.9999,20.7615003 135.8809,19.6425003 134.4999,19.6425003 C133.1189,19.6425003 131.9999,20.7615003 131.9999,22.1425003 C131.9999,23.5235003 133.1189,24.6425003 134.4999,24.6425003 C135.8809,24.6425003 136.9999,23.5235003 136.9999,22.1425003" id="Fill-16"></path>
            <path d="M146.9999,21.1425003 C146.9999,19.7615003 145.8809,18.6425003 144.4999,18.6425003 C143.1189,18.6425003 141.9999,19.7615003 141.9999,21.1425003 C141.9999,22.5235003 143.1189,23.6425003 144.4999,23.6425003 C145.8809,23.6425003 146.9999,22.5235003 146.9999,21.1425003" id="Fill-18"></path>
            <path d="M153.9999,25.1425003 C153.9999,23.7615003 152.8809,22.6425003 151.4999,22.6425003 C150.1189,22.6425003 148.9999,23.7615003 148.9999,25.1425003 C148.9999,26.5235003 150.1189,27.6425003 151.4999,27.6425003 C152.8809,27.6425003 153.9999,26.5235003 153.9999,25.1425003" id="Fill-20"></path>
            <path d="M159.9999,31.1425003 C159.9999,29.7615003 158.8809,28.6425003 157.4999,28.6425003 C156.1189,28.6425003 154.9999,29.7615003 154.9999,31.1425003 C154.9999,32.5235003 156.1189,33.6425003 157.4999,33.6425003 C158.8809,33.6425003 159.9999,32.5235003 159.9999,31.1425003" id="Fill-22"></path>
            <path d="M56.7831,22.5302003 C54.2561,29.5492003 57.1161,37.5872003 63.8431,41.3242003 C67.4621,43.3362003 71.6451,43.8142003 75.6291,42.6782003 C78.7961,41.7732003 81.5331,39.9292003 83.5321,37.3902003 L56.7831,22.5302003 Z M71.3411,48.2842003 C67.9021,48.2842003 64.5031,47.4112003 61.4151,45.6952003 C51.5341,40.2062003 47.9611,27.7012003 53.4501,17.8192003 C53.7721,17.2392003 54.3111,16.8112003 54.9491,16.6302003 C55.5841,16.4462003 56.2691,16.5252003 56.8491,16.8472003 L88.3191,34.3312003 C88.8991,34.6532003 89.3271,35.1922003 89.5101,35.8302003 C89.6911,36.4682003 89.6131,37.1512003 89.2911,37.7302003 C86.6321,42.5172003 82.2671,45.9822003 77.0021,47.4862003 C75.1351,48.0202003 73.2311,48.2842003 71.3411,48.2842003 L71.3411,48.2842003 Z" id="Fill-24"></path>
            <path d="M63.4472,10.9208003 L90.0682,26.1498003 C92.8502,19.0398003 90.0102,10.7688003 83.1572,6.96080028 C79.5382,4.94880028 75.3532,4.46880028 71.3712,5.60680028 C68.1922,6.51480028 65.4482,8.36780028 63.4472,10.9208003 M102.4982,38.6428003 C102.0772,38.6428003 101.6502,38.5358003 101.2592,38.3128003 L58.6532,13.9388003 C57.4652,13.2588003 57.0452,11.7508003 57.7092,10.5548003 C60.3682,5.76780028 64.7322,2.30280028 69.9982,0.798800277 C75.2602,-0.707199723 80.7992,-0.0691997234 85.5852,2.58980028 C94.8702,7.74780028 98.5852,19.1028003 94.4432,28.6528003 L103.7412,33.9728003 C104.9392,34.6578003 105.3552,36.1858003 104.6702,37.3838003 C104.2082,38.1908003 103.3652,38.6428003 102.4982,38.6428003" id="Fill-26"></path>
            <path d="M47.4999,185.6425 C46.1189,185.6425 44.9999,184.5235 44.9999,183.1425 L44.9999,114.3925 C44.9999,109.5675 48.9249,105.6425 53.7499,105.6425 L164.4999,105.6425 C165.8809,105.6425 166.9999,106.7615 166.9999,108.1425 C166.9999,109.5235 165.8809,110.6425 164.4999,110.6425 L53.7499,110.6425 C51.6829,110.6425 49.9999,112.3255 49.9999,114.3925 L49.9999,183.1425 C49.9999,184.5235 48.8809,185.6425 47.4999,185.6425" id="Fill-28"></path>
        </g>
    </g>
</svg>