<?xml version="1.0" encoding="UTF-8"?>
<svg width="14px" height="14px" viewBox="0 0 14 14" version="1.1" xmlns="http://www.w3.org/2000/svg" xmlns:xlink="http://www.w3.org/1999/xlink">
    <!-- Generator: Sketch 43.2 (39069) - http://www.bohemiancoding.com/sketch -->
    <title>Artboard Copy</title>
    <desc>Created with Sketch.</desc>
    <defs></defs>
    <g id="Page-1" stroke="none" stroke-width="1" fill="none" fill-rule="evenodd">
        <g id="Artboard-Copy" fill="#0E67A8">
            <path d="M14.142874,5.96427613 C14.142874,5.43190943 13.7109538,4.99998927 13.1785871,4.99998927 L9.00001073,4.99998927 L9.00001073,0.821412861 C9.00001073,0.289046155 8.56809057,-0.142874002 8.03572387,-0.142874002 L6.10715014,-0.142874002 C5.57478343,-0.142874002 5.14286327,0.289046155 5.14286327,0.821412861 L5.14286327,4.99998927 L0.964286864,4.99998927 C0.431920158,4.99998927 0,5.43190943 0,5.96427613 L0,7.89284986 C0,8.42521657 0.431920158,8.85713673 0.964286864,8.85713673 L5.14286327,8.85713673 L5.14286327,13.0357131 C5.14286327,13.5680798 5.57478343,14 6.10715014,14 L8.03572387,14 C8.56809057,14 9.00001073,13.5680798 9.00001073,13.0357131 L9.00001073,8.85713673 L13.1785871,8.85713673 C13.7109538,8.85713673 14.142874,8.42521657 14.142874,7.89284986 L14.142874,5.96427613 Z" id="ï§"></path>
        </g>
    </g>
</svg>