<?xml version="1.0" encoding="UTF-8"?>
<svg width="204px" height="186px" viewBox="0 0 204 186" version="1.1" xmlns="http://www.w3.org/2000/svg" xmlns:xlink="http://www.w3.org/1999/xlink">
    <!-- Generator: Sketch 43.2 (39069) - http://www.bohemiancoding.com/sketch -->
    <title>Artboard 2 Copy 2</title>
    <desc>Created with Sketch.</desc>
    <defs></defs>
    <g id="Page-1" stroke="none" stroke-width="1" fill="none" fill-rule="evenodd">
        <g id="Artboard-2-Copy-2" fill="#FFFFFF">
            <path d="M75.5936,8 C66.4956,8 59.0936,15.402 59.0936,24.5 C59.0936,33.598 66.4956,41 75.5936,41 C84.6916,41 92.0936,33.598 92.0936,24.5 C92.0936,15.402 84.6916,8 75.5936,8 M75.5936,46 C63.7386,46 54.0936,36.355 54.0936,24.5 C54.0936,12.645 63.7386,3 75.5936,3 C87.4486,3 97.0936,12.645 97.0936,24.5 C97.0936,36.355 87.4486,46 75.5936,46" id="Fill-1"></path>
            <path d="M72.5926,102 C72.0026,102 71.4096,101.792 70.9326,101.369 C69.9006,100.452 69.8076,98.872 70.7246,97.84 L92.4786,73.356 C92.9326,72.847 92.9406,72.079 92.4996,71.565 L83.2026,60.719 C79.5966,59.768 64.0576,55.661 57.9066,53.904 C52.5696,52.379 49.3906,53.463 48.7806,53.709 L25.4516,68.706 C24.7946,69.129 24.6316,69.75 24.5916,70.083 C24.5536,70.416 24.5696,71.059 25.1116,71.62 L48.3936,95.765 C49.3516,96.759 49.3226,98.341 48.3286,99.3 C47.3356,100.259 45.7526,100.229 44.7936,99.235 L21.5116,75.091 C20.0736,73.6 19.3856,71.563 19.6256,69.504 C19.8656,67.445 21.0036,65.621 22.7476,64.5 L46.2416,49.397 C46.3176,49.349 46.3956,49.304 46.4756,49.264 C46.9736,49.015 51.5686,46.894 59.2806,49.096 C66.1756,51.066 85.0396,56.032 85.2296,56.082 C85.7206,56.212 86.1606,56.487 86.4916,56.873 L96.2966,68.312 C98.3586,70.718 98.3226,74.316 96.2126,76.681 L74.4626,101.16 C73.9686,101.717 73.2816,102 72.5926,102" id="Fill-3"></path>
            <path d="M102.0941,146.5 C101.4211,146.5 100.7491,146.229 100.2571,145.695 L52.2571,93.695 C51.3201,92.681 51.3831,91.1 52.3981,90.163 C53.4121,89.227 54.9941,89.289 55.9301,90.305 L103.9301,142.305 C104.8671,143.319 104.8041,144.9 103.7891,145.837 C103.3081,146.28 102.7001,146.5 102.0941,146.5" id="Fill-5"></path>
            <g id="Group-9" transform="translate(0.000000, 99.498000)">
                <path d="M11.8255,79.792 C9.8895,79.792 7.9285,79.316 6.1175,78.315 C3.3495,76.785 1.3425,74.269 0.4675,71.229 C-0.4075,68.189 -0.0465,64.991 1.4835,62.223 L34.9015,1.3 C35.5655,0.09 37.0855,-0.354 38.2955,0.31 C39.5065,0.974 39.9495,2.494 39.2855,3.704 L5.8635,64.635 C4.9755,66.242 4.7665,68.09 5.2725,69.846 C5.7785,71.602 6.9375,73.056 8.5365,73.94 C11.8365,75.764 16.0085,74.563 17.8345,71.263 L51.9025,9.298 C52.5685,8.087 54.0875,7.647 55.2985,8.312 C56.5085,8.977 56.9495,10.496 56.2845,11.706 L22.2135,73.677 C20.0525,77.584 15.9985,79.792 11.8255,79.792" id="Fill-7"></path>
            </g>
            <path d="M57.5907,185.498 C56.8117,185.498 56.0217,185.421 55.2287,185.26 C48.8307,183.959 44.6827,177.695 45.9837,171.296 L58.6597,117.428 C58.9757,116.082 60.3207,115.253 61.6667,115.566 C63.0097,115.883 63.8437,117.228 63.5277,118.572 L50.8667,172.366 C50.1317,175.989 52.5287,179.608 56.2247,180.359 C59.9237,181.11 63.5407,178.714 64.2927,175.018 L73.6447,129.497 C73.9227,128.144 75.2427,127.275 76.5967,127.551 C77.9487,127.829 78.8197,129.15 78.5427,130.503 L69.1907,176.019 C68.0517,181.62 63.1027,185.498 57.5907,185.498" id="Fill-10"></path>
            <path d="M108.3627,167.6953 C114.4977,168.7923 121.7707,168.6793 122.9497,166.7143 C126.0037,161.6243 125.8247,153.7083 125.6707,151.1123 L113.0937,138.5353 L96.5697,155.0593 L108.3627,167.6953 Z M115.8777,173.4093 C111.7847,173.4093 107.9257,172.7163 106.6037,172.4513 C106.0907,172.3483 105.6227,172.0883 105.2657,171.7063 L91.2657,156.7063 C90.3467,155.7203 90.3737,154.1843 91.3257,153.2323 L111.3257,133.2323 C112.3017,132.2563 113.8857,132.2563 114.8617,133.2323 L129.8617,148.2323 C130.2677,148.6373 130.5217,149.1723 130.5807,149.7423 C130.6307,150.2293 131.7617,161.7453 127.2377,169.2863 C125.2787,172.5503 120.4337,173.4093 115.8777,173.4093 L115.8777,173.4093 Z" id="Fill-12"></path>
            <path d="M137.7098,180.5 L196.0578,180.5 L197.5978,178.96 C191.9058,173.161 184.8458,167.5 182.0938,167.5 C180.7128,167.5 179.5938,166.381 179.5938,165 C179.5878,163.247 179.0238,157.822 176.5938,156 C174.5268,154.448 169.2838,156.2 167.2118,157.236 C166.9888,157.348 166.7508,157.425 166.5048,157.466 C165.7608,157.59 159.1258,158.567 155.3258,154.768 C155.2808,154.724 155.2378,154.676 155.1958,154.628 C153.5788,152.744 151.4978,150.897 150.3908,150.314 C149.2908,151.754 148.0268,154.401 147.4148,155.93 C147.3228,156.157 147.1988,156.37 147.0458,156.562 L143.5938,160.877 L143.5938,167 C143.5938,167.742 143.2638,168.445 142.6938,168.921 C142.5188,169.072 138.4528,172.667 137.7098,180.5 M197.0938,185.5 L135.0938,185.5 C133.7128,185.5 132.5938,184.381 132.5938,183 C132.5938,173.5 136.7178,167.978 138.5938,165.957 L138.5938,160 C138.5938,159.433 138.7868,158.882 139.1418,158.438 L142.9168,153.719 C143.4628,152.412 145.2908,148.268 147.3258,146.232 C148.0698,145.488 149.0978,145.108 150.1758,145.144 C153.3708,145.267 157.3008,149.413 158.9188,151.288 C160.5188,152.808 163.8928,152.756 165.3578,152.58 C167.3128,151.666 174.9198,148.495 179.5938,152 C183.1708,154.683 184.1908,159.947 184.4808,162.917 C191.3168,165.089 200.8828,175.099 202.9258,177.299 C203.8408,178.284 203.8128,179.817 202.8608,180.768 L198.8608,184.768 C198.3928,185.236 197.7568,185.5 197.0938,185.5" id="Fill-14"></path>
        </g>
    </g>
</svg>