<?xml version="1.0" encoding="UTF-8"?>
<svg width="149px" height="186px" viewBox="0 0 149 186" version="1.1" xmlns="http://www.w3.org/2000/svg" xmlns:xlink="http://www.w3.org/1999/xlink">
    <!-- Generator: Sketch 43.2 (39069) - http://www.bohemiancoding.com/sketch -->
    <title>Artboard 2 Copy</title>
    <desc>Created with Sketch.</desc>
    <defs></defs>
    <g id="Page-1" stroke="none" stroke-width="1" fill="none" fill-rule="evenodd">
        <g id="Artboard-2-Copy" fill="#FFFFFF">
            <path d="M39.5,12 C30.402,12 23,19.402 23,28.5 C23,37.598 30.402,45 39.5,45 C48.598,45 56,37.598 56,28.5 C56,19.402 48.598,12 39.5,12 M39.5,50 C27.645,50 18,40.355 18,28.5 C18,16.645 27.645,7 39.5,7 C51.355,7 61,16.645 61,28.5 C61,40.355 51.355,50 39.5,50" id="Fill-1"></path>
            <path d="M92.6953,185.915 L92.6683,185.915 C82.2543,185.893 79.1743,177.137 79.0023,172.511 L79.0003,142 L26.4633,142 C24.4903,142 22.6053,141.156 21.2913,139.686 C19.9773,138.216 19.3493,136.249 19.5703,134.289 L28.0153,59.221 C28.1583,57.956 29.2273,57 30.5003,57 L48.5003,57 C49.2993,57 50.0513,57.383 50.5213,58.029 L65.9283,79.214 L98.9343,85.038 C100.2943,85.278 101.2023,86.575 100.9623,87.935 C100.7213,89.295 99.4293,90.207 98.0653,89.962 L64.0653,83.962 C63.4273,83.85 62.8593,83.494 62.4783,82.971 L47.2263,62 L32.7343,62 L24.5393,134.848 C24.4553,135.597 24.8033,136.113 25.0193,136.354 C25.2343,136.596 25.7093,137 26.4633,137 L81.5003,137 C82.8813,137 84.0003,138.119 84.0003,139.5 L84.0003,172.355 C84.0583,173.417 84.7563,180.897 92.6783,180.915 L92.6953,180.915 C94.8413,180.915 96.8793,180.061 98.4363,178.507 C100.0653,176.881 101.0003,174.625 101.0003,172.318 L101.0003,126.729 C101.0003,124.122 98.8783,122 96.2703,122 L47.5003,122 C46.7983,122 46.1283,121.704 45.6543,121.186 C45.1803,120.667 44.9463,119.974 45.0103,119.273 L46.0103,108.273 C46.1343,106.898 47.3553,105.87 48.7263,106.011 C50.1013,106.136 51.1143,107.352 50.9893,108.727 L50.2373,117 L96.2703,117 C101.6353,117 106.0003,121.364 106.0003,126.729 L106.0003,172.318 C106.0003,175.943 104.5303,179.488 101.9673,182.046 C99.4663,184.542 96.1743,185.915 92.6953,185.915" id="Fill-3"></path>
            <path d="M2.5,186 C1.119,186 0,184.881 0,183.5 L0,82.5 C0,81.119 1.119,80 2.5,80 C3.881,80 5,81.119 5,82.5 L5,183.5 C5,184.881 3.881,186 2.5,186" id="Fill-5"></path>
            <path d="M53.5,186 C52.119,186 51,184.881 51,183.5 L51,160.917 C51,159.033 49.467,157.5 47.583,157.5 L2.5,157.5 C1.119,157.5 0,156.381 0,155 C0,153.619 1.119,152.5 2.5,152.5 L47.583,152.5 C52.225,152.5 56,156.275 56,160.917 L56,183.5 C56,184.881 54.881,186 53.5,186" id="Fill-7"></path>
            <path d="M146.5,186 C145.119,186 144,184.881 144,183.5 L144,115.417 C144,112.981 142.019,111 139.583,111 L86.5,111 C85.119,111 84,109.881 84,108.5 C84,107.119 85.119,106 86.5,106 L139.583,106 C144.775,106 149,110.225 149,115.417 L149,183.5 C149,184.881 147.881,186 146.5,186" id="Fill-9"></path>
            <path d="M130.5,99 L97.5,99 C96.119,99 95,97.881 95,96.5 C95,95.119 96.119,94 97.5,94 L128.597,94 L136.09,66.835 C136.457,65.504 137.83,64.72 139.165,65.09 C140.496,65.457 141.277,66.834 140.91,68.165 L132.91,97.165 C132.611,98.249 131.625,99 130.5,99" id="Fill-11"></path>
        </g>
    </g>
</svg>