<?xml version="1.0" encoding="UTF-8"?>
<svg width="232px" height="42px" viewBox="0 0 232 42" version="1.1" xmlns="http://www.w3.org/2000/svg" xmlns:xlink="http://www.w3.org/1999/xlink">
    <!-- Generator: Sketch 43.2 (39069) - http://www.bohemiancoding.com/sketch -->
    <title>logo</title>
    <desc>Created with Sketch.</desc>
    <defs>
        <polygon id="path-1" points="18.8784411 27.8201285 0.333344754 27.8201285 0.333344754 0.284858244 18.8784411 0.284858244"></polygon>
    </defs>
    <g id="Page-1" stroke="none" stroke-width="1" fill="none" fill-rule="evenodd">
        <g id="logo">
            <g id="Group">
                <g id="Page-1">
                    <path d="M4.96788009,8.66711263 L4.96788009,18.8020848 C4.96788009,24.6453054 9.73207709,30.5699991 18.4189122,35.5751383 C27.1062441,30.5699991 31.8699443,24.6453054 31.8699443,18.8020848 L31.8699443,8.66711263 L18.4189122,5.13644026 L4.96788009,8.66711263 Z M18.4189122,41.2499478 L17.2310921,40.6036266 C6.11943469,34.5522518 0,26.8098107 0,18.8020848 L0,4.83488994 L18.4189122,0.000149036403 L36.8378244,4.83488994 L36.8378244,18.8020848 C36.8378244,26.8098107 30.7183897,34.5522518 19.6072291,40.6036266 L18.4189122,41.2499478 Z" id="Fill-1" fill="#D84F4F"></path>
                    <polygon id="Fill-3" fill="#000000" points="51.1982767 7.98353233 54.6285979 22.8633268 55.3762638 27.0045516 56.1254201 22.9482775 59.0604437 7.98353233 64.789403 7.98353233 67.8769405 22.8613396 68.667827 27.0045516 69.4696428 23.0222989 72.9337456 7.98353233 78.4620026 7.98353233 71.1522638 33.9675323 65.9528805 33.9675323 62.8151675 18.7722775 61.8985936 13.7482604 60.9815229 18.7722775 57.8438099 33.9675323 52.8014116 33.9675323 45.4335486 7.98353233"></polygon>
                    <path d="M90.5672857,28.840382 C91.3546946,27.7956368 91.7486475,26.311731 91.7486475,24.3866775 C91.7486475,22.4621208 91.3546946,20.9806989 90.5672857,19.9419152 C89.7798767,18.9036283 88.6516711,18.3844848 87.182669,18.3844848 C85.71317,18.3844848 84.5824805,18.9036283 83.7891101,19.9419152 C82.9957396,20.9806989 82.5993028,22.4621208 82.5993028,24.3866775 C82.5993028,26.311731 82.9957396,27.7956368 83.7891101,28.840382 C84.5824805,29.8846304 85.71317,30.4067546 87.182669,30.4067546 C88.6516711,30.4067546 89.7798767,29.8846304 90.5672857,28.840382 M94.5867974,31.6169302 C92.9642878,33.6189859 90.5027032,34.6200137 87.2005533,34.6200137 C83.8979066,34.6200137 81.4358253,33.6189859 79.8138124,31.6169302 C78.1922964,29.6153713 77.3815383,27.2049559 77.3815383,24.3866775 C77.3815383,21.6160908 78.1922964,19.2146176 79.8138124,17.1832514 C81.4358253,15.1518852 83.8979066,14.1359537 87.2005533,14.1359537 C90.5027032,14.1359537 92.9642878,15.1518852 94.5867974,17.1832514 C96.2078167,19.2146176 97.0190715,21.6160908 97.0190715,24.3866775 C97.0190715,27.2049559 96.2078167,29.6153713 94.5867974,31.6169302" id="Fill-5" fill="#000000"></path>
                    <path d="M110.454306,14.3032719 C110.518888,14.3092334 110.662957,14.3181756 110.886511,14.3296017 L110.886511,19.4773191 C110.569064,19.4420471 110.286888,19.4186981 110.040481,19.4067752 C109.793081,19.395349 109.593372,19.3888908 109.440858,19.3888908 C107.419428,19.3888908 106.061706,20.0476317 105.368687,21.3631263 C104.980696,22.1038373 104.786948,23.2439657 104.786948,24.7835118 L104.786948,33.9676317 L99.7271623,33.9676317 L99.7271623,14.7528651 L104.522657,14.7528651 L104.522657,18.1022099 C105.298143,16.8214904 105.973775,15.9456531 106.549552,15.4756916 C107.489475,14.6882827 108.71207,14.2943298 110.216344,14.2943298 C110.310237,14.2943298 110.389723,14.2973105 110.454306,14.3032719" id="Fill-7" fill="#000000"></path>
                    <polygon id="Fill-9" fill="#000000" points="113.700418 8.07186124 118.637 8.07186124 118.637 22.0887349 124.973035 14.8410946 131.221137 14.8410946 124.333669 21.9993131 131.487913 33.967433 125.372949 33.967433 120.717549 25.7580111 118.637 27.9210261 118.637 33.967433 113.700418 33.967433"></polygon>
                    <path d="M137.533127,19.4821876 C136.823217,20.2139563 136.377101,21.2055452 136.195277,22.4564574 L144.850318,22.4564574 C144.758909,21.1225816 144.312793,20.1106244 143.511971,19.4200891 C142.711149,18.7295537 141.718069,18.3842861 140.532236,18.3842861 C139.242575,18.3842861 138.243037,18.7504188 137.533127,19.4821876 M145.049033,15.1422475 C146.389367,15.7423675 147.496707,16.6897422 148.369564,17.9843717 C149.156476,19.1264874 149.667174,20.4504274 149.900665,21.9566887 C150.035791,22.8399777 150.090934,24.1107615 150.066095,25.7705302 L136.071577,25.7705302 C136.149573,27.6980677 136.819243,29.049331 138.081084,29.8248171 C138.848125,30.3071983 139.771654,30.5476437 140.851174,30.5476437 C141.995277,30.5476437 142.925264,30.254042 143.640639,29.6663418 C144.030618,29.3488942 144.375388,28.9082433 144.674455,28.3443889 L149.803791,28.3443889 C149.668665,29.4840206 149.048176,30.6420334 147.941333,31.816937 C146.219962,33.6853567 143.81054,34.619815 140.712074,34.619815 C138.155106,34.619815 135.899191,33.8319092 133.943834,32.2556009 C131.98947,30.6797893 131.012288,28.1153696 131.012288,24.5628385 C131.012288,21.2343589 131.894087,18.6818621 133.659174,16.905845 C135.423765,15.1298278 137.713958,14.2415709 140.530249,14.2415709 C142.202438,14.2415709 143.709196,14.5421276 145.049033,15.1422475" id="Fill-11" fill="#000000"></path>
                    <path d="M163.529149,14.3032719 C163.593732,14.3092334 163.7378,14.3181756 163.960858,14.3296017 L163.960858,19.4773191 C163.643411,19.4420471 163.361732,19.4186981 163.114828,19.4067752 C162.868421,19.395349 162.668216,19.3888908 162.515702,19.3888908 C160.494272,19.3888908 159.13655,20.0476317 158.443531,21.3631263 C158.055539,22.1038373 157.861792,23.2439657 157.861792,24.7835118 L157.861792,33.9676317 L152.802503,33.9676317 L152.802503,14.7528651 L157.597501,14.7528651 L157.597501,18.1022099 C158.372987,16.8214904 159.048618,15.9456531 159.624893,15.4756916 C160.564319,14.6882827 161.786914,14.2943298 163.291188,14.2943298 C163.385081,14.2943298 163.464567,14.2973105 163.529149,14.3032719" id="Fill-13" fill="#000000"></path>
                    <path d="M168.983137,31.4014732 C168.983137,33.1879229 167.63237,34.6365567 165.966143,34.6365567 C164.299419,34.6365567 162.949149,33.1879229 162.949149,31.4014732 C162.949149,29.6150236 164.299419,28.1668865 165.966143,28.1668865 C167.63237,28.1668865 168.983137,29.6150236 168.983137,31.4014732" id="Fill-15" fill="#000000"></path>
                    <g id="Group-19" transform="translate(171.391863, 14.009770)">
                        <mask id="mask-2" fill="white">
                            <use xlink:href="#path-1"></use>
                        </mask>
                        <g id="Clip-18"></g>
                        <path d="M12.7311863,14.5019375 C13.5384668,13.6146741 13.9423555,12.2013122 13.9423555,10.2623486 C13.9423555,8.44062698 13.5588351,7.05409165 12.7922912,6.10224582 C12.0257473,5.14990321 10.9993833,4.6739803 9.71220557,4.6739803 C7.95655675,4.6739803 6.74489079,5.5026227 6.0777045,7.15990749 C5.72647537,8.04120942 5.551606,9.12867837 5.551606,10.420824 C5.551606,11.5376034 5.73839829,12.5306827 6.11297645,13.4000617 C6.79158887,15.0220745 8.00871949,15.8328325 9.76436831,15.8328325 C10.9348009,15.8328325 11.923409,15.3896976 12.7311863,14.5019375 M11.0202484,0.725509208 C12.2403597,1.23074261 13.2259872,2.1592394 13.9776274,3.51050278 L13.9776274,0.742896788 L18.8784411,0.742896788 L18.8784411,18.9705456 C18.8784411,21.4500146 18.4611392,23.318931 17.6265353,24.5763015 C16.1928051,26.7388197 13.4430835,27.8203272 9.37687366,27.8203272 C6.92025696,27.8203272 4.91720771,27.337946 3.36524197,26.3741773 C1.81377302,25.4109054 0.956316916,23.9712137 0.791880086,22.0555991 L6.25654818,22.0555991 C6.39763597,22.6432994 6.62665525,23.066066 6.94410278,23.3248925 C7.48411135,23.7834278 8.39522056,24.0124471 9.67643683,24.0124471 C11.4857388,24.0124471 12.6969079,23.4068625 13.3074604,22.1966869 C13.7073747,21.4212009 13.9070835,20.1166355 13.9070835,18.282991 L13.9070835,17.0489696 C13.4247024,17.8721473 12.9080428,18.4886612 12.3556146,18.9004985 C11.3565739,19.6645585 10.05797,20.0460916 8.459803,20.0460916 C5.99225696,20.0460916 4.02050535,19.1796934 2.54554176,17.4459032 C1.07057816,15.7126099 0.333344754,13.3647897 0.333344754,10.4034364 C0.333344754,7.54740214 1.04375161,5.14741927 2.46357173,3.20199743 C3.88339186,1.25707238 5.89687366,0.284858244 8.50252677,0.284858244 C9.46480514,0.284858244 10.3038801,0.431907495 11.0202484,0.725509208" id="Fill-17" fill="#000000" mask="url(#mask-2)"></path>
                    </g>
                    <path d="M206.129665,28.840382 C206.916577,27.7956368 207.31053,26.311731 207.31053,24.3866775 C207.31053,22.4621208 206.916577,20.9806989 206.129665,19.9419152 C205.341759,18.9036283 204.214051,18.3844848 202.745048,18.3844848 C201.275549,18.3844848 200.144363,18.9036283 199.350993,19.9419152 C198.558119,20.9806989 198.161682,22.4621208 198.161682,24.3866775 C198.161682,26.311731 198.558119,27.7956368 199.350993,28.840382 C200.144363,29.8846304 201.275549,30.4067546 202.745048,30.4067546 C204.214051,30.4067546 205.341759,29.8846304 206.129665,28.840382 M210.14868,31.6169302 C208.526667,33.6189859 206.064586,34.6200137 202.762436,34.6200137 C199.459789,34.6200137 196.997708,33.6189859 195.376192,31.6169302 C193.754676,29.6153713 192.943421,27.2049559 192.943421,24.3866775 C192.943421,21.6160908 193.754676,19.2146176 195.376192,17.1832514 C196.997708,15.1518852 199.459789,14.1359537 202.762436,14.1359537 C206.064586,14.1359537 208.526667,15.1518852 210.14868,17.1832514 C211.770196,19.2146176 212.580954,21.6160908 212.580954,24.3866775 C212.580954,27.2049559 211.770196,29.6153713 210.14868,31.6169302" id="Fill-20" fill="#000000"></path>
                    <polygon id="Fill-22" fill="#000000" points="226.534338 14.7527657 231.928463 14.7527657 224.990321 33.9675323 219.693071 33.9675323 212.802124 14.7527657 218.443152 14.7527657 222.444779 28.9261276"></polygon>
                    <path d="M18.4811101,22.5696754 C16.3568445,22.5696754 14.6821722,20.3515169 14.2141979,16.9177182 C13.967791,15.1123906 14.3374013,13.5420437 15.2539752,12.4958081 C16.0195255,11.621958 17.1358081,11.1599452 18.4811101,11.1599452 C19.826412,11.1599452 20.9426946,11.621958 21.708245,12.4958081 C22.6248188,13.5415469 22.9944291,15.1123906 22.7485191,16.9177182 C22.2805448,20.3515169 20.6053756,22.5696754 18.4811101,22.5696754" id="Fill-24" fill="#0E67A8"></path>
                    <path d="M22.5970484,23.3276745 C22.5756865,23.3276745 22.5428985,23.3321456 22.5091169,23.3371135 C21.3973054,24.4374989 20.020209,25.0535161 18.4811597,25.0535161 C16.9376394,25.0535161 15.5580591,24.4340214 14.4447572,23.3276745 C13.9593953,23.3281713 11.9687657,24.5398373 10.3363203,25.8742099 C12.2017593,28.2200428 14.932603,30.532591 18.4190612,32.6831863 C21.9551983,30.5017901 24.7128685,28.1534732 26.5797979,25.7733619 C24.9711983,24.4797259 23.0685002,23.3276745 22.5970484,23.3276745" id="Fill-26" fill="#0E67A8"></path>
                </g>
            </g>
        </g>
    </g>
</svg>