<?xml version="1.0" encoding="UTF-8"?>
<svg width="232px" height="43px" viewBox="0 0 232 43" version="1.1" xmlns="http://www.w3.org/2000/svg" xmlns:xlink="http://www.w3.org/1999/xlink">
    <!-- Generator: Sketch 43.2 (39069) - http://www.bohemiancoding.com/sketch -->
    <title>logo</title>
    <desc>Created with Sketch.</desc>
    <defs>
        <polygon id="path-1" points="0 42.6839827 231.927688 42.6839827 231.927688 0.401229437 0 0.401229437"></polygon>
    </defs>
    <g id="Page-1" stroke="none" stroke-width="1" fill="none" fill-rule="evenodd">
        <g id="logo">
            <polygon id="Fill-1" fill="#000000" points="51.7523706 8.5720987 55.2198165 23.6129299 55.975574 27.7989732 56.7328381 23.6988 59.699626 8.5720987 65.490587 8.5720987 68.6115394 23.6109212 69.4109853 27.7989732 70.2214788 23.7736225 73.7230719 8.5720987 79.3111584 8.5720987 71.92231 34.8373108 66.6666563 34.8373108 63.4949853 19.4776052 62.5684918 14.3992156 61.6414961 19.4776052 58.4698251 34.8373108 53.3728554 34.8373108 45.9252537 8.5720987"></polygon>
            <g id="Group-20" transform="translate(0.000000, 0.100784)">
                <path d="M91.5474511,29.5538874 C92.3433818,28.4978355 92.7415983,26.9978701 92.7415983,25.0519827 C92.7415983,23.1065974 92.3433818,21.6091429 91.5474511,20.5591169 C90.7515203,19.5095931 89.6111048,18.9848312 88.1262043,18.9848312 C86.6408017,18.9848312 85.4978753,19.5095931 84.6959186,20.5591169 C83.8939619,21.6091429 83.4932346,23.1065974 83.4932346,25.0519827 C83.4932346,26.9978701 83.8939619,28.4978355 84.6959186,29.5538874 C85.4978753,30.6094372 86.6408017,31.1372121 88.1262043,31.1372121 C89.6111048,31.1372121 90.7515203,30.6094372 91.5474511,29.5538874 Z M95.6104641,32.3604848 C93.9703948,34.3842078 91.4821697,35.3960693 88.1442823,35.3960693 C84.8058926,35.3960693 82.3171654,34.3842078 80.6775983,32.3604848 C79.0385333,30.3372641 78.2190009,27.9007619 78.2190009,25.0519827 C78.2190009,22.2514113 79.0385333,19.8239481 80.6775983,17.7705974 C82.3171654,15.7172468 84.8058926,14.6903203 88.1442823,14.6903203 C91.4821697,14.6903203 93.9703948,15.7172468 95.6104641,17.7705974 C97.2490268,19.8239481 98.0690615,22.2514113 98.0690615,25.0519827 C98.0690615,27.9007619 97.2490268,30.3372641 95.6104641,32.3604848 Z" id="Fill-2" fill="#000000"></path>
                <path d="M111.398616,14.8594494 C111.463898,14.8654753 111.609526,14.8745143 111.8355,14.8860641 L111.8355,20.0894926 C111.514616,20.053839 111.229387,20.0302372 110.980313,20.0181853 C110.730235,20.0066355 110.528365,20.0001074 110.374201,20.0001074 C108.330894,20.0001074 106.958478,20.6659775 106.257958,21.9957091 C105.865768,22.7444364 105.669924,23.8969039 105.669924,25.4531117 L105.669924,34.7366268 L100.555378,34.7366268 L100.555378,15.3139082 L105.402772,15.3139082 L105.402772,18.6995013 C106.186651,17.4049212 106.869595,16.5196052 107.451603,16.0445576 C108.401699,15.2486268 109.637526,14.8504104 111.15808,14.8504104 C111.252989,14.8504104 111.333335,14.8534234 111.398616,14.8594494" id="Fill-4" fill="#000000"></path>
                <polygon id="Fill-6" fill="#000000" points="114.428777 8.56059913 119.418786 8.56059913 119.418786 22.7291706 125.823392 15.4030926 132.139115 15.4030926 125.177106 22.638781 132.408777 34.736426 126.227635 34.736426 121.521851 26.4381576 119.418786 28.6245818 119.418786 34.736426 114.428777 34.736426"></polygon>
                <path d="M138.268334,20.0944139 C137.550741,20.8341022 137.099797,21.8364225 136.916005,23.1008727 L145.664715,23.1008727 C145.572317,21.752561 145.121373,20.7296519 144.311884,20.0316433 C143.502395,19.3336346 142.498568,18.9846303 141.299901,18.9846303 C139.996282,18.9846303 138.985927,19.3547255 138.268334,20.0944139 M145.865581,15.7075048 C147.220421,16.3141195 148.339745,17.2717472 149.222048,18.5803879 C150.017477,19.7348641 150.533702,21.0731325 150.769719,22.5956952 C150.906308,23.4885437 150.962048,24.7730805 150.93694,26.4508121 L136.790966,26.4508121 C136.869806,28.3992104 137.546724,29.7650978 138.822222,30.5489766 C139.597564,31.0365784 140.531087,31.279626 141.622291,31.279626 C142.778776,31.279626 143.718828,30.9828468 144.441945,30.3887861 C144.836144,30.067903 145.184646,29.6224831 145.486949,29.0525264 L150.671797,29.0525264 C150.535209,30.2044918 149.908005,31.3750372 148.789183,32.5626563 C147.049183,34.451297 144.613685,35.3958684 141.481685,35.3958684 C138.897044,35.3958684 136.616715,34.5994355 134.640196,33.0060675 C132.664681,31.4132017 131.676923,28.8210286 131.676923,25.2300502 C131.676923,21.8655481 132.568265,19.2854268 134.352455,17.4901887 C136.136144,15.6949506 138.451122,14.7970805 141.297893,14.7970805 C142.988178,14.7970805 144.511243,15.10089 145.865581,15.7075048" id="Fill-8" fill="#000000"></path>
                <path d="M164.294616,14.8594494 C164.359898,14.8654753 164.505526,14.8745143 164.730997,14.8860641 L164.730997,20.0894926 C164.410114,20.053839 164.125387,20.0302372 163.875811,20.0181853 C163.626738,20.0066355 163.424365,20.0001074 163.270201,20.0001074 C161.226894,20.0001074 159.854478,20.6659775 159.153958,21.9957091 C158.761768,22.7444364 158.565924,23.8969039 158.565924,25.4531117 L158.565924,34.7366268 L153.451881,34.7366268 L153.451881,15.3139082 L158.298772,15.3139082 L158.298772,18.6995013 C159.082651,17.4049212 159.765595,16.5196052 160.348106,16.0445576 C161.297699,15.2486268 162.533526,14.8504104 164.05408,14.8504104 C164.148989,14.8504104 164.229335,14.8534234 164.294616,14.8594494" id="Fill-10" fill="#000000"></path>
                <mask id="mask-2" fill="white">
                    <use xlink:href="#path-1"></use>
                </mask>
                <g id="Clip-13"></g>
                <polygon id="Fill-12" fill="#000000" mask="url(#mask-2)" points="163.749316 34.7367273 169.148589 34.7367273 169.148589 29.4087619 163.749316 29.4087619"></polygon>
                <path d="M183.855983,29.2216554 C184.672,28.3247896 185.08026,26.8961316 185.08026,24.9361835 C185.08026,23.0947463 184.692589,21.6932052 183.917749,20.731058 C183.142909,19.7684087 182.105437,19.2873351 180.804329,19.2873351 C179.02968,19.2873351 177.8049,20.1249455 177.130494,21.8001662 C176.775463,22.6910061 176.598701,23.7902442 176.598701,25.096374 C176.598701,26.2252398 176.787515,27.2290667 177.166147,28.1078545 C177.852104,29.7474216 179.082407,30.5669541 180.857056,30.5669541 C182.040156,30.5669541 183.039463,30.1190234 183.855983,29.2216554 M182.126528,15.2961316 C183.359844,15.8068329 184.356139,16.7453784 185.115913,18.1112658 L185.115913,15.3137074 L190.069766,15.3137074 L190.069766,33.7386251 C190.069766,36.2449281 189.647948,38.134071 188.804312,39.4050494 C187.355065,41.5909714 184.575584,42.6841835 180.465368,42.6841835 C177.982165,42.6841835 175.957437,42.1965818 174.388675,41.2223827 C172.820416,40.2486857 171.95368,38.793413 171.787463,36.8570667 L177.311273,36.8570667 C177.453887,37.4511273 177.685385,37.8784693 178.006268,38.140097 C178.552121,38.6035948 179.473091,38.8350926 180.768173,38.8350926 C182.597056,38.8350926 183.821333,38.2229541 184.438494,36.9996814 C184.842736,36.2158026 185.044606,34.8971186 185.044606,33.0436294 L185.044606,31.7962528 C184.557004,32.6283394 184.034753,33.2515255 183.476346,33.6678199 C182.466494,34.4401489 181.153835,34.8258113 179.538372,34.8258113 C177.044121,34.8258113 175.05103,33.9500364 173.560104,32.1974823 C172.069177,30.4454303 171.323965,28.0722009 171.323965,25.0787983 C171.323965,22.1918545 172.042061,19.7658978 173.477247,17.7994216 C174.912433,15.8334476 176.947706,14.8507117 179.581558,14.8507117 C180.554251,14.8507117 181.402407,14.9993524 182.126528,15.2961316" id="Fill-14" fill="#000000" mask="url(#mask-2)"></path>
                <path d="M205.849683,29.5538874 C206.645112,28.4978355 207.043328,26.9978701 207.043328,25.0519827 C207.043328,23.1065974 206.645112,21.6091429 205.849683,20.5591169 C205.05325,19.5095931 203.913337,18.9848312 202.428436,18.9848312 C200.943034,18.9848312 199.799605,19.5095931 198.997648,20.5591169 C198.196194,21.6091429 197.795467,23.1065974 197.795467,25.0519827 C197.795467,26.9978701 198.196194,28.4978355 198.997648,29.5538874 C199.799605,30.6094372 200.943034,31.1372121 202.428436,31.1372121 C203.913337,31.1372121 205.05325,30.6094372 205.849683,29.5538874 M209.912194,32.3604848 C208.272627,34.3842078 205.7839,35.3960693 202.446012,35.3960693 C199.107623,35.3960693 196.618895,34.3842078 194.97983,32.3604848 C193.340765,30.3372641 192.520731,27.9007619 192.520731,25.0519827 C192.520731,22.2514113 193.340765,19.8239481 194.97983,17.7705974 C196.618895,15.7172468 199.107623,14.6903203 202.446012,14.6903203 C205.7839,14.6903203 208.272627,15.7172468 209.912194,17.7705974 C211.551259,19.8239481 212.370791,22.2514113 212.370791,25.0519827 C212.370791,27.9007619 211.551259,30.3372641 209.912194,32.3604848" id="Fill-15" fill="#000000" mask="url(#mask-2)"></path>
                <polygon id="Fill-16" fill="#000000" mask="url(#mask-2)" points="226.475186 15.3138078 231.927688 15.3138078 224.914459 34.7365264 219.559879 34.7365264 212.594355 15.3138078 218.296433 15.3138078 222.341368 29.640561"></polygon>
                <path d="M5.02164502,9.16229264 L5.02164502,19.4069506 C5.02164502,25.3134095 9.8374026,31.3022234 18.6182511,36.3615307 C27.3996017,31.3022234 32.2148571,25.3134095 32.2148571,19.4069506 L32.2148571,9.16229264 L18.6182511,5.59340952 L5.02164502,9.16229264 Z M18.6182511,42.0977558 L17.4175758,41.4444398 C6.18566234,35.327574 0,27.5013403 0,19.4069506 L0,5.28859567 L18.6182511,0.401530736 L37.2365022,5.28859567 L37.2365022,19.4069506 C37.2365022,27.5013403 31.0508398,35.327574 19.8194286,41.4444398 L18.6182511,42.0977558 Z" id="Fill-17" fill="#D84F4F" mask="url(#mask-2)"></path>
                <path d="M22.3620381,24.3569368 C21.5219169,25.1252485 20.7435619,25.975413 18.7213455,25.975413 C16.699129,25.975413 15.9212762,25.1252485 15.0806528,24.3569368 C15.0218996,24.3037074 14.7095532,24.2324 14.6015879,24.2324 C14.1024364,24.2324 12.0204623,25.5068935 10.3522719,26.8868416 C12.2665229,29.2440017 15.0434926,31.5569714 18.6184017,33.7358632 C22.2445316,31.5258372 25.0526355,29.1782182 26.9688952,26.7864087 C25.3228,25.4451273 23.3287048,24.2324 22.8416052,24.2324 C22.7336398,24.2324 22.4207913,24.3037074 22.3620381,24.3569368" id="Fill-18" fill="#0E67A8" mask="url(#mask-2)"></path>
                <path d="M21.9432329,13.2835567 C21.1693974,12.4002494 20.0410338,11.9332364 18.6811723,11.9332364 C17.3208087,11.9332364 16.1929472,12.4002494 15.4191117,13.2835567 C14.4926182,14.340613 14.1190078,15.9284571 14.3680814,17.7533229 C14.8406182,21.2237818 16.5339169,23.4664485 18.6811723,23.4664485 C20.8284277,23.4664485 22.5217264,21.2237818 22.9947654,17.7533229 C23.2433368,15.9284571 22.8702286,14.340613 21.9432329,13.2835567" id="Fill-19" fill="#0E67A8" mask="url(#mask-2)"></path>
            </g>
        </g>
    </g>
</svg>