<?xml version="1.0" encoding="UTF-8"?>
<svg width="232px" height="39px" viewBox="0 0 232 39" version="1.1" xmlns="http://www.w3.org/2000/svg" xmlns:xlink="http://www.w3.org/1999/xlink">
    <!-- Generator: Sketch 43.2 (39069) - http://www.bohemiancoding.com/sketch -->
    <title>logo</title>
    <desc>Created with Sketch.</desc>
    <defs>
        <path d="M7.17412846,4.69879518 L7.4150878,5.00703614 C7.73573821,5.41959036 7.9106813,5.92659036 7.9106813,6.44862651 L7.9106813,26.5340964 C7.9106813,28.4286506 8.47794959,29.6028795 11.302974,29.6028795 L13.8587463,29.6028795 C16.5163724,29.6028795 18.7463073,30.4138916 20.3283398,31.8803855 C21.9108439,30.4138916 24.1403073,29.6028795 26.7984049,29.6028795 L29.3541772,29.6028795 C32.1792016,29.6028795 32.7464699,28.4286506 32.7464699,26.5340964 L32.7464699,6.44862651 C32.7464699,5.92659036 32.921413,5.41959036 33.2420634,5.00703614 L33.4830228,4.69879518 L7.17412846,4.69879518 Z M20.3283398,38.7523735 C19.2470878,38.7523735 18.3039984,38.0184217 18.041348,36.9729398 C17.5900797,35.1751807 16.2216569,34.3016747 13.8587463,34.3016747 L11.302974,34.3016747 C6.22585203,34.3016747 3.19523415,31.3978193 3.19523415,26.5340964 L3.19523415,7.25353012 L0.49564065,3.79051807 C-0.0565382114,3.08240964 -0.155562602,2.12244578 0.240063415,1.31660241 C0.636160976,0.510759036 1.45759187,0 2.35777073,0 L38.2993805,0 C39.1995593,0 40.0209902,0.510759036 40.4170878,1.31660241 C40.8127138,2.12244578 40.7136894,3.08240964 40.1615106,3.79051807 L37.4619171,7.25353012 L37.4619171,26.5340964 C37.4619171,31.3978193 34.4312992,34.3016747 29.3541772,34.3016747 L26.7984049,34.3016747 C24.4350228,34.3016747 23.0670715,35.1751807 22.6158033,36.9729398 C22.3531528,38.0184217 21.4100634,38.7523735 20.3283398,38.7523735 L20.3283398,38.7523735 Z" id="path-1"></path>
    </defs>
    <g id="Page-1" stroke="none" stroke-width="1" fill="none" fill-rule="evenodd">
        <g id="home" transform="translate(-120.000000, -92.000000)">
            <g id="logo" transform="translate(120.000000, 92.000000)">
                <polygon id="Fill-1" fill="#0E67A8" fill-rule="evenodd" points="53.6217073 5.81936386 56.865935 19.8400988 57.5723089 23.7419783 58.2810407 19.9199783 61.0565528 5.81936386 66.4736585 5.81936386 69.3929919 19.8377494 70.1408618 23.7419783 70.8991057 19.9895205 74.1749268 5.81936386 79.402 5.81936386 72.489626 30.3024361 67.5737724 30.3024361 64.606813 15.9847373 63.7401138 11.2511711 62.8729431 15.9847373 59.9059837 30.3024361 55.1381951 30.3024361 48.1706504 5.81936386"></polygon>
                <path d="M92.1719024,25.4712759 C92.916,24.4873482 93.2885203,23.0889867 93.2885203,21.2747819 C93.2885203,19.4619867 92.916,18.0655048 92.1719024,17.0872157 C91.4268618,16.1089265 90.3602276,15.619312 88.9715285,15.619312 C87.5823577,15.619312 86.5124228,16.1089265 85.7626667,17.0872157 C85.0119675,18.0655048 84.6370894,19.4619867 84.6370894,21.2747819 C84.6370894,23.0889867 85.0119675,24.4873482 85.7626667,25.4712759 C86.5124228,26.4556735 87.5823577,26.9476373 88.9715285,26.9476373 C90.3602276,26.9476373 91.4268618,26.4556735 92.1719024,25.4712759 Z M95.9725528,28.0875651 C94.4386179,29.9741313 92.1106016,30.9171795 88.9880325,30.9171795 C85.8649919,30.9171795 83.5369756,29.9741313 82.0039837,28.0875651 C80.4700488,26.2014687 79.7037886,23.9310108 79.7037886,21.2747819 C79.7037886,18.6641313 80.4700488,16.4016614 82.0039837,14.4873723 C83.5369756,12.573553 85.8649919,11.6164084 88.9880325,11.6164084 C92.1106016,11.6164084 94.4386179,12.573553 95.9725528,14.4873723 C97.5060163,16.4016614 98.272748,18.6641313 98.272748,21.2747819 C98.272748,23.9310108 97.5060163,26.2014687 95.9725528,28.0875651 Z" id="Fill-2" fill="#0E67A8" fill-rule="evenodd"></path>
                <path d="M111.765859,11.7741 C111.826688,11.7797386 111.962964,11.7881964 112.174216,11.7990036 L112.174216,16.6491 C111.874314,16.6162084 111.60742,16.5941241 111.374476,16.5823771 C111.141062,16.5720398 110.951501,16.5659313 110.80768,16.5659313 C108.896037,16.5659313 107.612021,17.1866422 106.957046,18.4261843 C106.590184,19.1244253 106.406753,20.1985699 106.406753,21.649088 L106.406753,30.302859 L101.622932,30.302859 L101.622932,12.1974614 L106.156834,12.1974614 L106.156834,15.3536422 C106.890086,14.1469916 107.529501,13.3218831 108.073663,12.8787867 C108.962997,12.136847 110.118281,11.7656422 111.540932,11.7656422 C111.629582,11.7656422 111.705029,11.7684614 111.765859,11.7741" id="Fill-4" fill="#0E67A8" fill-rule="evenodd"></path>
                <polygon id="Fill-6" fill="#0E67A8" fill-rule="evenodd" points="114.90828 5.90243855 119.575158 5.90243855 119.575158 19.109812 125.567548 12.2805831 131.47506 12.2805831 124.962556 19.0257036 131.727337 30.302812 125.945255 30.302812 121.542914 22.5671855 119.575158 24.6055229 119.575158 30.302812 114.90828 30.302812"></polygon>
                <path d="M138.677057,16.6536578 C138.005106,17.343441 137.584016,18.2775614 137.410959,19.4564892 L145.595561,19.4564892 C145.508797,18.1995614 145.087707,17.2461759 144.329935,16.5953928 C143.573106,15.9446096 142.633789,15.619453 141.512927,15.619453 C140.293512,15.619453 139.348065,15.9643446 138.677057,16.6536578 M145.783236,12.5642964 C147.05122,13.1300313 148.098049,14.0228024 148.923252,15.2426096 C149.667821,16.3186337 150.150211,17.565694 150.370894,18.9856699 C150.498683,19.8173566 150.551496,21.0150795 150.527447,22.5788386 L137.294488,22.5788386 C137.36852,24.3953928 138.001333,25.6687663 139.194813,26.398959 C139.92052,26.8533325 140.79335,27.0802843 141.813772,27.0802843 C142.895967,27.0802843 143.77587,26.8039952 144.451593,26.2500072 C144.820341,25.950694 145.14665,25.5353205 145.429577,25.0038867 L150.279415,25.0038867 C150.151626,26.0785012 149.565024,27.1690916 148.518667,28.2761277 C146.890894,30.0367663 144.61239,30.9168506 141.683154,30.9168506 C139.264602,30.9168506 137.131805,30.174441 135.28335,28.6896217 C133.434894,27.2043325 132.510667,24.788212 132.510667,21.4407904 C132.510667,18.3052843 133.344358,15.8999711 135.013154,14.2262602 C136.682423,12.5525494 138.847756,11.715694 141.511041,11.715694 C143.091659,11.715694 144.516195,11.9990313 145.783236,12.5642964" id="Fill-8" fill="#0E67A8" fill-rule="evenodd"></path>
                <path d="M163.023335,11.7741 C163.084164,11.7797386 163.220441,11.7881964 163.431221,11.7990036 L163.431221,16.6491 C163.131319,16.6162084 162.864896,16.5941241 162.63101,16.5823771 C162.398067,16.5720398 162.208506,16.5659313 162.064685,16.5659313 C160.153042,16.5659313 158.869498,17.1866422 158.21405,18.4261843 C157.847189,19.1244253 157.664229,20.1985699 157.664229,21.649088 L157.664229,30.302859 L152.879937,30.302859 L152.879937,12.1974614 L157.413839,12.1974614 L157.413839,15.3536422 C158.147563,14.1469916 158.786034,13.3218831 159.33114,12.8787867 C160.220002,12.136847 161.375758,11.7656422 162.797465,11.7656422 C162.887059,11.7656422 162.961563,11.7684614 163.023335,11.7741" id="Fill-10" fill="#0E67A8" fill-rule="evenodd"></path>
                <polygon id="Fill-12" fill="#0E67A8" fill-rule="evenodd" points="164.264959 30.3023892 169.315675 30.3023892 169.315675 25.3362325 164.264959 25.3362325"></polygon>
                <path d="M184.43901,25.1619542 C185.202441,24.3260386 185.584863,22.9944 185.584863,21.1670386 C185.584863,19.4510386 185.221774,18.1438337 184.49701,17.2468337 C183.772246,16.3503036 182.801335,15.9015687 181.583807,15.9015687 C179.924441,15.9015687 178.778587,16.6825084 178.14766,18.2434482 C177.816164,19.0741952 177.65018,20.0990024 177.65018,21.3164602 C177.65018,22.3689904 177.82701,23.3045205 178.18114,24.1235205 C178.822912,25.6520386 179.973953,26.4160627 181.63379,26.4160627 C182.740034,26.4160627 183.675579,25.9978699 184.43901,25.1619542 M182.820668,12.1810627 C183.97501,12.6575205 184.907254,13.5319663 185.617872,14.8053398 L185.617872,12.1975084 L190.251741,12.1975084 L190.251741,29.3725446 C190.251741,31.7087855 189.857059,33.4694241 189.068164,34.6544602 C187.712002,36.6918578 185.112376,37.7105566 181.266928,37.7105566 C178.944571,37.7105566 177.049904,37.256653 175.582928,36.3488458 C174.115953,35.4405687 173.305367,34.0840265 173.149758,32.2792193 L178.316945,32.2792193 C178.44992,32.8327373 178.667302,33.2316651 178.967205,33.4750627 C179.477888,33.9068819 180.3394,34.1230265 181.550798,34.1230265 C183.262034,34.1230265 184.406945,33.5521229 184.984115,32.4121952 C185.361823,31.6810627 185.550912,30.4523277 185.550912,28.7245807 L185.550912,27.5616289 C185.095872,28.3374 184.606408,28.918641 184.084408,29.3058217 C183.139433,30.026147 181.912002,30.3856048 180.400701,30.3856048 C178.066554,30.3856048 176.202538,29.5694241 174.80818,27.935653 C173.41288,26.3023518 172.715937,24.0906289 172.715937,21.3000145 C172.715937,18.6094843 173.387416,16.3474843 174.730376,14.5149542 C176.073335,12.6819542 177.976489,11.7656892 180.440782,11.7656892 C181.350392,11.7656892 182.144002,11.9043036 182.820668,12.1810627" id="Fill-14" fill="#0E67A8" fill-rule="evenodd"></path>
                <path d="M206.037031,25.4712759 C206.7816,24.4873482 207.15412,23.0889867 207.15412,21.2747819 C207.15412,19.4619867 206.7816,18.0655048 206.037031,17.0872157 C205.292933,16.1089265 204.225828,15.619312 202.836657,15.619312 C201.447958,15.619312 200.378494,16.1089265 199.627795,17.0872157 C198.878039,18.0655048 198.502689,19.4619867 198.502689,21.2747819 C198.502689,23.0889867 198.878039,24.4873482 199.627795,25.4712759 C200.378494,26.4556735 201.447958,26.9476373 202.836657,26.9476373 C204.225828,26.9476373 205.292933,26.4556735 206.037031,25.4712759 M209.838153,28.0875651 C208.304689,29.9741313 205.976202,30.9171795 202.853633,30.9171795 C199.731063,30.9171795 197.402576,29.9741313 195.869584,28.0875651 C194.33612,26.2014687 193.568917,23.9310108 193.568917,21.2747819 C193.568917,18.6641313 194.33612,16.4016614 195.869584,14.4873723 C197.402576,12.573553 199.731063,11.6164084 202.853633,11.6164084 C205.976202,11.6164084 208.304689,12.573553 209.838153,14.4873723 C211.371616,16.4016614 212.137876,18.6641313 212.137876,21.2747819 C212.137876,23.9310108 211.371616,26.2014687 209.838153,28.0875651" id="Fill-15" fill="#0E67A8" fill-rule="evenodd"></path>
                <polygon id="Fill-16" fill="#0E67A8" fill-rule="evenodd" points="226.731572 12.1976024 231.832272 12.1976024 225.271198 30.3025301 220.26245 30.3025301 213.746646 12.1976024 219.080759 12.1976024 222.864434 25.5520482"></polygon>
                <mask id="mask-2" fill="white">
                    <use xlink:href="#path-1"></use>
                </mask>
                <use id="Fill-17" fill="#D84E4E" fill-rule="evenodd" xlink:href="#path-1"></use>
                <rect id="Rectangle" stroke="#FFFFFF" stroke-width="3" fill="#0E67A8" fill-rule="evenodd" mask="url(#mask-2)" x="-0.943089431" y="-4.69879518" width="23.5772358" height="19.7349398"></rect>
            </g>
        </g>
    </g>
</svg>